<svg xmlns="http://www.w3.org/2000/svg" viewBox="0 0 32 32"><g data-name="to do list android app aplication phone"><path d="M30.56 8.47a8 8 0 0 0-7-7 64.29 64.29 0 0 0-15.06 0 8 8 0 0 0-7 7 64.29 64.29 0 0 0 0 15.06 8 8 0 0 0 7 7 64.29 64.29 0 0 0 15.06 0 8 8 0 0 0 7-7 64.29 64.29 0 0 0 0-15.06zm-2 14.83a6 6 0 0 1-5.28 5.28 63.65 63.65 0 0 1-14.6 0 6 6 0 0 1-5.26-5.28 63.65 63.65 0 0 1 0-14.6A6 6 0 0 1 8.7 3.42a63.65 63.65 0 0 1 14.6 0 6 6 0 0 1 5.28 5.28 63.65 63.65 0 0 1 0 14.6z"/><path d="M11 5H9a2 2 0 0 0-2 2v2a2 2 0 0 0 2 2h2a2 2 0 0 0 2-2V7a2 2 0 0 0-2-2zM9 9V7h2v2zM11 13H9a2 2 0 0 0-2 2v2a2 2 0 0 0 2 2h2a2 2 0 0 0 2-2v-2a2 2 0 0 0-2-2zm-2 4v-2h2v2zM11 21H9a2 2 0 0 0-2 2v2a2 2 0 0 0 2 2h2a2 2 0 0 0 2-2v-2a2 2 0 0 0-2-2zm-2 4v-2h2v2zM24 7h-8a1 1 0 0 0 0 2h8a1 1 0 0 0 0-2zM24 15h-8a1 1 0 0 0 0 2h8a1 1 0 0 0 0-2zM24 23h-8a1 1 0 0 0 0 2h8a1 1 0 0 0 0-2z"/></g></svg>