<svg xmlns="http://www.w3.org/2000/svg" xmlns:xlink="http://www.w3.org/1999/xlink" viewBox="0 0 1920 1080" width="1920" height="1080" preserveAspectRatio="xMidYMid meet" style="width: 100%; height: 100%; transform: translate3d(0px, 0px, 0px); content-visibility: visible;"><defs><clipPath id="__lottie_element_20577"><rect width="1920" height="1080" x="0" y="0"></rect></clipPath></defs><g clip-path="url(#__lottie_element_20577)"><g transform="matrix(1,0,0,1,960,540)" opacity="0.25" style="display: block;"><g opacity="1" transform="matrix(1,0,0,1,0,-1)"><path stroke-linecap="round" stroke-linejoin="miter" fill-opacity="0" stroke-miterlimit="4" stroke="rgb(45,45,45)" stroke-opacity="1" stroke-width="80" d=" M-7.038000106811523,-399.9389953613281 C-4.697000026702881,-399.9800109863281 -2.3510000705718994,-400 0,-400 C0,-400 0,-400 0,-400 C64.55799865722656,-400 125.56500244140625,-384.6719970703125 179.5780029296875,-357.4590148925781"></path></g></g><g transform="matrix(1,0,0,1,960,540)" opacity="0.25" style="display: block;"><g opacity="1" transform="matrix(1,0,0,1,0,-1)"><path stroke-linecap="round" stroke-linejoin="miter" fill-opacity="0" stroke-miterlimit="4" stroke="rgb(45,45,45)" stroke-opacity="1" stroke-width="80" d=" M-5.2789998054504395,-399.96600341796875 C-3.5220000743865967,-399.989013671875 -1.7619999647140503,-400 0,-400 C0,-400 0,-400 0,-400 C97.01699829101562,-400 186.01600646972656,-365.38299560546875 255.30599975585938,-307.8370056152344"></path></g></g><g transform="matrix(1,0,0,1,960,540)" opacity="1" style="display: block;"><g opacity="1" transform="matrix(1,0,0,1,0,-1)"><path stroke-linecap="round" stroke-linejoin="miter" fill-opacity="0" stroke-miterlimit="4" stroke="rgb(45,45,45)" stroke-opacity="1" stroke-width="80" d=" M6.283999919891357,-399.9519958496094 C186.08799743652344,-397.1759948730469 337.27301025390625,-275.5039978027344 384.6109924316406,-110.16200256347656"></path></g></g></g></svg>