<svg xmlns="http://www.w3.org/2000/svg" viewBox="0 0 60 60"><g data-name="29-Check List"><rect x="40" y="15" width="8" height="4" rx="1" ry="1" style="fill:#f2f2f2"/><path d="M54 11v12a3 3 0 0 1-3 3H37a3 3 0 0 1-3-3V11h20zm-6 7v-2a1 1 0 0 0-1-1h-6a1 1 0 0 0-1 1v2a1 1 0 0 0 1 1h6a1 1 0 0 0 1-1z" style="fill:#e3a76f"/><path d="M56 7v3a1 1 0 0 1-1 1h-6l5-5h1a1 1 0 0 1 1 1z" style="fill:#f2f2f2"/><path style="fill:#c18f5f" d="m54 6-5 5h-5l5-5h5z"/><path style="fill:#f2f2f2" d="m49 6-5 5h-5l5-5h5z"/><path style="fill:#c18f5f" d="m44 6-5 5h-5l5-5h5z"/><path d="m39 6-5 5h-1a1 1 0 0 1-1-1V7a1 1 0 0 1 1-1z" style="fill:#f2f2f2"/><path style="fill:#c39160" d="M34 11h20v3H34z"/><g data-name="&lt;Group&gt;"><path d="M50.55 32.95a2 2 0 0 1 0 2.83l-2.13 2.12-2.82-2.82 2.12-2.13a2.178 2.178 0 0 1 .66-.44 2.006 2.006 0 0 1 2.17.44z" style="fill:#7e8596"/><path style="fill:#dce1eb" d="M48 38.33 36.4 49.92l-4.95 2.13 2.13-4.95L45.6 35.08l2.82 2.82-.42.43z"/><path d="M18 48v2a3 3 0 0 1-3 3h-2a2.993 2.993 0 0 1-2.12-.88L11 52l6-6 .12-.12A2.993 2.993 0 0 1 18 48z" style="fill:#f2f2f2"/><path d="M15 45a2.993 2.993 0 0 1 2.12.88L17 46l-6 6-.12.12A2.993 2.993 0 0 1 10 50v-2a3 3 0 0 1 3-3zM18 36v2a3 3 0 0 1-3 3h-2a2.993 2.993 0 0 1-2.12-.88L11 40l6-6 .12-.12A2.993 2.993 0 0 1 18 36z" style="fill:#f2f2f2"/><path d="M15 33a2.993 2.993 0 0 1 2.12.88L17 34l-6 6-.12.12A2.993 2.993 0 0 1 10 38v-2a3 3 0 0 1 3-3zM18 24v2a3 3 0 0 1-3 3h-2a2.993 2.993 0 0 1-2.12-.88L11 28l6-6 .12-.12A2.993 2.993 0 0 1 18 24z" style="fill:#f2f2f2"/><path d="M15 21a2.993 2.993 0 0 1 2.12.88L17 22l-6 6-.12.12A2.993 2.993 0 0 1 10 26v-2a3 3 0 0 1 3-3zM19 1v12a2.938 2.938 0 0 1-3 3H4z" style="fill:#f2f2f2"/><path d="m48 32 .38.51a2.178 2.178 0 0 0-.66.44l-2.12 2.13L33.58 47.1l-2.13 4.95 4.95-2.13L48 38.33V54a5 5 0 0 1-5 5H9a5 5 0 0 1-5-5V16h12a2.938 2.938 0 0 0 3-3V1h24a5 5 0 0 1 5 5H33a1 1 0 0 0-1 1v3a1 1 0 0 0 1 1h1v12a3 3 0 0 0 3 3h11zM18 50v-2a3 3 0 0 0-3-3h-2a3 3 0 0 0-3 3v2a3 3 0 0 0 3 3h2a3 3 0 0 0 3-3zm0-12v-2a3 3 0 0 0-3-3h-2a3 3 0 0 0-3 3v2a3 3 0 0 0 3 3h2a3 3 0 0 0 3-3zm0-12v-2a3 3 0 0 0-3-3h-2a3 3 0 0 0-3 3v2a3 3 0 0 0 3 3h2a3 3 0 0 0 3-3z" style="fill:#ffe45c"/><path d="M22 16V1h-3v12a2.938 2.938 0 0 1-3 3H4v3h15a2.938 2.938 0 0 0 3-3z" style="fill:#ffc247"/><path d="M15 20h-2a4 4 0 0 0-4 4v2a4 4 0 0 0 4 4h2a4 4 0 0 0 4-4v-2a4 4 0 0 0-4-4zm-4 4a2 2 0 0 1 2-2h2a1.985 1.985 0 0 1 .511.075l-4.436 4.436A1.979 1.979 0 0 1 11 26zm6 2a2 2 0 0 1-2 2h-2a1.985 1.985 0 0 1-.511-.075l4.436-4.436A1.979 1.979 0 0 1 17 24zM15 32h-2a4 4 0 0 0-4 4v2a4 4 0 0 0 4 4h2a4 4 0 0 0 4-4v-2a4 4 0 0 0-4-4zm-4 4a2 2 0 0 1 2-2h2a1.985 1.985 0 0 1 .511.075l-4.436 4.436A1.979 1.979 0 0 1 11 38zm6 2a2 2 0 0 1-2 2h-2a1.985 1.985 0 0 1-.511-.075l4.436-4.436A1.979 1.979 0 0 1 17 36zM31 26h-8a1 1 0 0 0 0 2h8a1 1 0 0 0 0-2zM31 38h-8a1 1 0 0 0 0 2h8a1 1 0 0 0 0-2zM23 24h4a1 1 0 0 0 0-2h-4a1 1 0 0 0 0 2zM23 36h4a1 1 0 0 0 0-2h-4a1 1 0 0 0 0 2zM15 44h-2a4 4 0 0 0-4 4v2a4 4 0 0 0 4 4h2a4 4 0 0 0 4-4v-2a4 4 0 0 0-4-4zm-4 4a2 2 0 0 1 2-2h2a1.985 1.985 0 0 1 .511.075l-4.436 4.436A1.979 1.979 0 0 1 11 50zm6 2a2 2 0 0 1-2 2h-2a1.985 1.985 0 0 1-.511-.075l4.436-4.436A1.979 1.979 0 0 1 17 48zM27 50h-4a1 1 0 0 0 0 2h4a1 1 0 0 0 0-2zM27 46h-4a1 1 0 0 0 0 2h4a1 1 0 0 0 0-2z" style="fill:#2b1505"/><path d="M55 5h-6.09A6.006 6.006 0 0 0 43 0H19c-.022 0-.041.011-.063.013a1.008 1.008 0 0 0-.261.052.91.91 0 0 0-.376.225l-15 15v.005a1 1 0 0 0-.191.283.948.948 0 0 0-.033.094 1 1 0 0 0-.054.265c0 .022-.012.04-.012.061V54a6.006 6.006 0 0 0 6 6H43a6.006 6.006 0 0 0 6-6V38.743l2.257-2.256A3 3 0 0 0 49 31.373V27h2a4 4 0 0 0 4-4V12a2 2 0 0 0 2-2V7a2 2 0 0 0-2-2zm-8.586 5 3-3h2.172l-3 3zm-5 0 3-3h2.172l-3 3zm-5 0 3-3h2.172l-3 3zm-2.828 0H33V7h3.586zM18 3.414V13a1.883 1.883 0 0 1-2 2H6.414zm27.6 33.08 1.41 1.41-11.181 11.173-2.468 1.062 1.062-2.468zm4.238-2.841a1 1 0 0 1 .007 1.418l-1.421 1.42-1.412-1.412 1.4-1.4a1.151 1.151 0 0 1 .344-.237 1 1 0 0 1 1.082.211zm-2.794-1.435c-.011.01-.022.016-.033.027L32.873 46.393a1 1 0 0 0-.212.312l-2.13 4.95a1 1 0 0 0 1.315 1.313l4.95-2.13a.968.968 0 0 0 .311-.211L47 40.741V54a4 4 0 0 1-4 4H9a4 4 0 0 1-4-4V17h11a3.887 3.887 0 0 0 4-4V2h23a4 4 0 0 1 3.858 3H33a2 2 0 0 0-2 2v3a2 2 0 0 0 2 2v11a4 4 0 0 0 4 4h10v5a.937.937 0 0 0 .044.218zM53 23a2 2 0 0 1-2 2H37a2 2 0 0 1-2-2V12h18zm2-13h-3.586l3-3H55z" style="fill:#2b1505"/><path d="M47 14h-6a2 2 0 0 0-2 2v2a2 2 0 0 0 2 2h6a2 2 0 0 0 2-2v-2a2 2 0 0 0-2-2zm0 4h-6v-2h6z" style="fill:#2b1505"/></g></g></svg>