<?xml version="1.0" encoding="utf-8"?>
<!-- Generator: Adobe Illustrator 27.5.0, SVG Export Plug-In . SVG Version: 6.00 Build 0)  -->
<svg version="1.1" id="Layer_1" xmlns="http://www.w3.org/2000/svg" xmlns:xlink="http://www.w3.org/1999/xlink" x="0px" y="0px"
	 viewBox="0 0 400 400" style="enable-background:new 0 0 400 400;" xml:space="preserve">
<rect style="fill:#FFFFFF;" width="400" height="400"/>
<g>
	<g>
		<path d="M95.678,341.129c-0.076,0-0.153-0.018-0.225-0.056c-0.235-0.124-0.325-0.416-0.201-0.652
			c9.424-17.829,20.892-34.602,34.086-49.854c0.174-0.201,0.478-0.224,0.68-0.049c0.201,0.174,0.223,0.479,0.049,0.68
			c-13.147,15.197-24.573,31.909-33.963,49.674C96.018,341.035,95.851,341.129,95.678,341.129z"/>
	</g>
	<g>
		<path d="M83.678,331.651c-0.095,0-0.191-0.028-0.274-0.086c-0.219-0.152-0.273-0.452-0.122-0.671
			c10.114-14.602,21.654-28.329,34.3-40.8c0.19-0.187,0.495-0.185,0.682,0.005c0.187,0.19,0.185,0.495-0.005,0.682
			c-12.604,12.429-24.105,26.11-34.185,40.663C83.981,331.578,83.831,331.651,83.678,331.651z"/>
	</g>
	<g>
		<path d="M23.035,299.14c-0.234,0-0.439-0.17-0.476-0.408c-0.041-0.263,0.14-0.509,0.403-0.55
			c31.385-4.86,61.498-14.923,89.501-29.908c0.235-0.126,0.527-0.038,0.653,0.197c0.126,0.235,0.037,0.527-0.197,0.653
			c-28.099,15.037-58.315,25.134-89.808,30.011C23.084,299.138,23.059,299.14,23.035,299.14z"/>
	</g>
	<g>
		<path d="M26.125,331.651c-0.161,0-0.319-0.081-0.41-0.228c-0.14-0.227-0.07-0.524,0.156-0.664l85.648-53.024
			c0.227-0.14,0.524-0.07,0.664,0.156c0.14,0.227,0.07,0.524-0.156,0.664l-85.648,53.024
			C26.3,331.628,26.212,331.651,26.125,331.651z"/>
	</g>
</g>
<g>
	<path style="fill:#FFFFFF;" d="M143.688,171.649c0-1.502,1.218-2.72,2.72-2.72c1.502,0,2.72,1.218,2.72,2.72
		c0,1.502-1.218,2.72-2.72,2.72C144.906,174.368,143.688,173.151,143.688,171.649z"/>
	<path d="M146.408,174.85c-1.766,0-3.202-1.436-3.202-3.202s1.436-3.202,3.202-3.202s3.202,1.436,3.202,3.202
		S148.174,174.85,146.408,174.85z M146.408,169.411c-1.234,0-2.238,1.004-2.238,2.238s1.004,2.237,2.238,2.237
		s2.237-1.004,2.237-2.237S147.642,169.411,146.408,169.411z"/>
</g>
<g>
	<path style="fill:#FFFFFF;" d="M259.094,113.756c0-1.502,1.218-2.72,2.72-2.72c1.502,0,2.72,1.218,2.72,2.72
		c0,1.502-1.218,2.72-2.72,2.72C260.311,116.476,259.094,115.258,259.094,113.756z"/>
	<path d="M261.813,116.958c-1.766,0-3.202-1.436-3.202-3.202c0-1.766,1.436-3.202,3.202-3.202s3.202,1.436,3.202,3.202
		C265.015,115.522,263.579,116.958,261.813,116.958z M261.813,111.519c-1.234,0-2.238,1.004-2.238,2.238
		c0,1.234,1.004,2.237,2.238,2.237s2.237-1.004,2.237-2.237C264.051,112.523,263.047,111.519,261.813,111.519z"/>
</g>
<g>
	<path style="fill:#FFFFFF;" d="M265.625,265.928c0-2.532,2.052-4.584,4.584-4.584s4.584,2.052,4.584,4.584
		c0,2.532-2.052,4.584-4.584,4.584S265.625,268.46,265.625,265.928z"/>
	<path d="M270.209,270.995c-2.794,0-5.066-2.273-5.066-5.066s2.273-5.066,5.066-5.066s5.066,2.273,5.066,5.066
		S273.003,270.995,270.209,270.995z M270.209,261.826c-2.262,0-4.102,1.84-4.102,4.102s1.84,4.102,4.102,4.102
		s4.102-1.84,4.102-4.102S272.471,261.826,270.209,261.826z"/>
</g>
<g>
	<g>
		<path style="fill:#FFFFFF;" d="M353.208,212.388c-21.47,0.541-42.94,1.083-64.41,1.624c-5.952,0.15-12.523,0.093-17.007-3.751
			c-5.09-4.364-5.145-13.159-0.108-17.561c5.036-4.402,13.96-3.36,17.818,2.081c-0.125-8.799,8.906-16.119,17.891-15.785
			c8.984,0.334,16.912,7.063,20.156,15.276c-0.632-5.53,6.033-10.013,11.525-8.57c5.492,1.443,8.995,7.161,9.231,12.72
			c4.034-5.746,14.303-5.454,18.016,0.512c0.988,1.587,1.538,3.467,1.348,5.313c-0.406,3.941-4.113,6.932-8.041,7.879
			C355.699,213.073,351.572,212.415,353.208,212.388z"/>
		<path d="M286.138,214.533c-5.431,0-10.794-0.591-14.661-3.905c-2.537-2.175-4.002-5.509-4.02-9.147
			c-0.018-3.624,1.407-6.956,3.908-9.143c2.509-2.193,6.061-3.2,9.747-2.764c3.181,0.377,6.01,1.778,7.953,3.903
			c0.297-3.469,1.959-6.825,4.764-9.567c3.642-3.559,8.719-5.578,13.58-5.395c7.998,0.298,15.859,5.83,19.748,13.693
			c0.338-1.704,1.313-3.325,2.825-4.635c2.558-2.217,6.175-3.134,9.212-2.336c5.547,1.458,8.845,6.909,9.487,11.953
			c2.066-2.234,5.252-3.49,8.755-3.385c3.987,0.11,7.461,1.933,9.292,4.874c1.105,1.775,1.608,3.77,1.418,5.617
			c-0.455,4.419-4.677,7.399-8.407,8.298c-2.537,0.612-6.09,0.666-7.055,0.289l-63.875,1.611
			C287.922,214.517,287.029,214.533,286.138,214.533z M279.429,190.438c-2.835,0-5.481,0.923-7.429,2.626
			c-2.29,2.002-3.595,5.068-3.579,8.412c0.016,3.358,1.359,6.427,3.684,8.42c4.244,3.638,10.311,3.795,16.681,3.635l64.266-1.62
			c0.05-0.002,0.1-0.003,0.148-0.004c0.143-0.009,0.298,0.07,0.388,0.186c1.065,0.097,3.488,0.153,5.926-0.434
			c3.411-0.822,7.267-3.507,7.674-7.459c0.169-1.636-0.285-3.415-1.277-5.009c-1.66-2.666-4.837-4.319-8.5-4.421
			c-3.659-0.096-6.913,1.368-8.712,3.931c-0.119,0.169-0.332,0.244-0.53,0.186c-0.198-0.058-0.338-0.236-0.346-0.442
			c-0.212-4.997-3.328-10.817-8.872-12.274c-2.738-0.72-6.01,0.117-8.336,2.132c-1.888,1.635-2.831,3.792-2.588,5.917
			c0.028,0.24-0.128,0.464-0.362,0.523c-0.235,0.058-0.477-0.065-0.566-0.291c-3.36-8.508-11.472-14.665-19.725-14.971
			c-4.612-0.176-9.414,1.743-12.87,5.121c-2.967,2.9-4.573,6.514-4.521,10.175c0.003,0.211-0.132,0.4-0.332,0.465
			c-0.201,0.065-0.421-0.007-0.543-0.18c-1.755-2.476-4.711-4.127-8.109-4.529C280.472,190.469,279.948,190.438,279.429,190.438z
			 M352.992,212.883L352.992,212.883L352.992,212.883z"/>
	</g>
	<g style="opacity:0.1294;">
		<path d="M364.887,206.498c-0.007,0.008-0.011,0.011-0.015,0.016c-1.004,0.757-0.927,0.923-2.342,1.623
			c-0.922,0.417-2.975,0.903-4.836,0.956c-2.039,0.114-4.065-0.27-6.105-0.276c-5.473-0.02-10.946,0.142-16.419,0.064
			c-7.036,0.094-14.072,0.18-21.107,0.335c-2.466,0.096-4.923,0.343-7.384,0.51c-2.849,0.177-5.702,0.274-8.552,0.438
			c-4.269,0.092-8.547,0.422-12.814,0.115c-0.692-0.062-1.484-0.29-2.02,0.29c-0.84,0.816-0.235,2.359,0.966,2.332
			c2.967,0.366,5.967,0.293,8.949,0.211c1.152-0.019,2.303-0.05,3.453-0.086c0.148,0.26,0.415,0.451,0.752,0.439
			c3.494,0.285,7.006,0.135,10.507,0.253c8.227,0.275,16.459,0.175,24.677-0.312c3.047-0.165,6.097-0.264,9.145-0.389
			c1.072-0.049,2.144-0.099,3.215-0.151c0.32-0.009,0.671-0.006,0.905-0.26c0.16-0.154,0.233-0.363,0.235-0.573
			c1.964,0.02,3.928,0.029,5.892-0.001c0.478-0.003,0.987-0.007,1.516-0.018c-0.005,0.285,0.122,0.575,0.392,0.723
			c0.299,0.185,0.656,0.08,0.984,0.065c0.587-0.054,1.172-0.126,1.756-0.204c1.02-0.137,2.021-0.381,3.017-0.635
			c0.425-0.149,0.922-0.186,1.295-0.442c0.219-0.154,0.317-0.369,0.329-0.588c1.62-0.542,3.092-1.353,4.202-2.571
			c0.332-0.383,0.874-0.696,0.879-1.252C366.378,206.366,365.402,205.955,364.887,206.498z"/>
	</g>
</g>
<g>
	<g>
		<path style="fill:#FFFFFF;" d="M239.192,333.174c12.321,0.191,24.65-0.109,36.948-0.899c1.597-0.103,3.239-0.225,4.675-0.931
			c3.638-1.788,4.472-7.381,1.687-10.327c-2.784-2.947-8.153-2.616-10.763,0.486c-0.245-4.551-3.778-9.018-8.324-9.333
			c-2.909-0.202-5.756,1.256-7.778,3.357c-2.022,2.101-3.321,4.79-4.358,7.516c-0.347-1.938-2.305-3.285-4.266-3.467
			c-1.96-0.182-3.89,0.57-5.617,1.516c-2.35,1.287-4.592,3.105-5.471,5.635C235.047,329.258,235.981,333.125,239.192,333.174z"/>
		<path d="M246.313,333.712c-2.381,0-4.757-0.018-7.128-0.055l0,0c-1.286-0.02-2.354-0.586-3.09-1.637
			c-0.991-1.416-1.248-3.657-0.625-5.451c0.791-2.278,2.707-4.263,5.695-5.9c2.257-1.237,4.129-1.737,5.893-1.573
			c1.616,0.15,3.384,1.064,4.239,2.591c0.873-2.111,2.101-4.529,3.993-6.494c2.299-2.389,5.349-3.699,8.158-3.504
			c4.248,0.295,7.952,4.12,8.664,8.746c1.348-1.183,3.155-1.876,5.104-1.932c2.207-0.064,4.265,0.732,5.636,2.183
			c1.46,1.544,2.081,3.852,1.663,6.172c-0.403,2.235-1.674,4.028-3.487,4.919c-1.563,0.768-3.389,0.885-4.857,0.98
			C266.279,333.392,256.264,333.712,246.313,333.712z M239.2,332.692c12.256,0.19,24.675-0.113,36.909-0.898
			c1.454-0.093,3.103-0.199,4.493-0.883c1.535-0.755,2.616-2.294,2.964-4.225c0.365-2.02-0.165-4.016-1.414-5.339
			c-1.183-1.252-2.976-1.935-4.907-1.882c-2.029,0.059-3.949,0.936-5.136,2.347c-0.127,0.151-0.334,0.21-0.522,0.147
			c-0.188-0.063-0.318-0.234-0.329-0.431c-0.248-4.612-3.782-8.594-7.876-8.878c-2.526-0.176-5.294,1.025-7.397,3.21
			c-2.136,2.22-3.396,5.096-4.255,7.353c-0.077,0.203-0.282,0.328-0.496,0.309c-0.216-0.02-0.391-0.182-0.43-0.395
			c-0.321-1.793-2.216-2.921-3.835-3.071c-1.562-0.147-3.26,0.318-5.341,1.458c-2.772,1.519-4.537,3.326-5.247,5.371
			c-0.528,1.52-0.321,3.404,0.504,4.582C237.444,332.265,238.222,332.677,239.2,332.692L239.2,332.692z"/>
	</g>
	<g style="opacity:0.1294;">
		<path d="M284.24,326.377c-0.047-0.745-0.986-1.179-1.607-0.79c-0.169,0.108-0.301,0.249-0.397,0.416
			c-0.017,0.024-0.036,0.047-0.052,0.072c-0.389,0.508-0.611,1.081-1.448,1.54c-0.772,0.536-6.001,1.538-6.729,1.552
			c-2.566,0.182-5.143,0.442-7.718,0.306c-1.35-0.066-2.7,0.008-4.05,0.01c-1.483-0.006-2.968-0.078-4.451,0.005
			c-3.823,0.118-7.633,0.43-11.45,0.652c-1.834,0.024-3.668,0.091-5.501,0.151c-0.61,0.016-1.219,0.047-1.829,0.075
			c-0.331-0.002-0.65,0.134-0.884,0.366c-0.778,0.733-0.198,2.169,0.884,2.133c2.953-0.149,5.911-0.076,8.864-0.176
			c3.175-0.135,6.342-0.383,9.522-0.393c1.796-0.082,3.589,0.07,5.384,0.098c1.854-0.029,3.708-0.001,5.561-0.018
			c2.566-0.133,4.765-0.41,6.721-0.683c0.146,0.512,0.645,0.923,1.297,0.748c1.357-0.182,2.735-0.373,4.003-0.914
			c0.574-0.253,1.209-0.529,1.583-1.05c0.183-0.32,0.186-0.639,0.082-0.912c0.218-0.147,0.436-0.306,0.662-0.485
			c0.65-0.607,1.288-1.332,1.517-2.21c0.006-0.02,0.008-0.04,0.012-0.06c0.001-0.002,0.002-0.001,0.003-0.004
			C284.266,326.664,284.272,326.521,284.24,326.377z"/>
	</g>
</g>
<g>
	<g>
		<path style="fill:#FFFFFF;" d="M130.588,63.904c-0.754,0.204-1.164-0.914-0.495-1.317c0.016-0.009,0.031-0.019,0.047-0.028
			c1.994-1.145,8.371-2.077,9.267-2.157c1.027-0.091,2.053-0.183,2.939-0.29c-2.5-1.033-6.4-3.592-9.142-3.653l0,0
			c-0.677,0.029-0.956-0.88-0.368-1.216c0.067-0.038,0.135-0.072,0.205-0.102c0.563-0.239,1.195-0.25,1.808-0.243
			c3.227,0.036,6.336,1.975,9.459,2.772c0.595,0.152,2.53,0.738,3.195,0.794c0.048-2.741,0.308-4.868,1.27-7.135
			c0.348-0.821,1.527-0.781,1.824,0.059l0.01,0.029c0.028,1.883-0.418,2.604,0.452,6.477c0.255,1.136,1.719,2.359,2.205,3.418
			c0.689,1.499,0.839,3.177,1.277,4.766c0.7,2.542,2.166,4.873,4.162,6.62c-0.153,0.672-1.524,1.905-3.12,2.236
			c-1.695-2.666-4.584-4.518-7.452-5.855c-1.267-0.591-2.619-1.129-4.019-1.063c-0.921,0.044-1.806,0.347-2.701,0.566
			c-2.515,0.615-6.468,1.668-6.468,1.668c-1.028-0.196-0.391-1.049-0.009-1.15l3.471-1.649c1.029-0.272,2.428-0.835,3.09-1.721
			c-1.954-0.92-6.05,0.728-9.795,1.406c-1.225,0.222-1.056-0.707-0.725-1.201c1.058-1.164,9.268-2.47,10.904-3.035
			C141.88,62.901,133.675,63.069,130.588,63.904z"/>
		<path d="M155.584,75.418c-0.163,0-0.317-0.083-0.407-0.223c-1.398-2.198-3.769-4.055-7.249-5.677
			c-1.4-0.653-2.585-1.077-3.792-1.018c-0.643,0.031-1.274,0.2-1.942,0.379c-0.222,0.06-0.445,0.119-0.668,0.174
			c-2.481,0.607-6.418,1.655-6.458,1.665c-0.069,0.019-0.143,0.021-0.214,0.008c-0.833-0.159-0.941-0.686-0.949-0.906
			c-0.018-0.515,0.426-1.026,0.854-1.169l3.44-1.634c0.027-0.013,0.055-0.023,0.084-0.031c0.925-0.244,1.725-0.605,2.278-1.016
			c-1.3-0.162-3.257,0.331-5.31,0.849c-1.137,0.287-2.314,0.584-3.465,0.792c-0.82,0.149-1.201-0.137-1.375-0.403
			c-0.317-0.484-0.11-1.132,0.164-1.541c0.013-0.02,0.028-0.038,0.044-0.056c0.625-0.688,2.877-1.304,5.913-1.983
			c-2.182,0.15-4.497,0.384-5.819,0.741c-0.552,0.15-1.104-0.126-1.336-0.672c-0.244-0.573-0.048-1.214,0.467-1.524l0.057-0.033
			c2.178-1.251,8.817-2.161,9.462-2.218c0.399-0.036,0.803-0.072,1.2-0.109c-0.319-0.159-0.647-0.326-0.982-0.497
			c-2.145-1.094-4.576-2.334-6.389-2.375c-0.509,0.022-0.964-0.31-1.114-0.829c-0.147-0.509,0.061-1.027,0.518-1.288
			c0.083-0.048,0.169-0.09,0.256-0.127c0.641-0.273,1.34-0.289,2.001-0.281c2.119,0.024,4.171,0.827,6.156,1.603
			c1.125,0.44,2.288,0.895,3.417,1.183c0.153,0.039,0.392,0.106,0.676,0.185c0.544,0.153,1.357,0.38,1.931,0.506
			c0.072-2.412,0.347-4.519,1.296-6.754c0.236-0.558,0.779-0.905,1.389-0.887c0.608,0.019,1.132,0.401,1.334,0.974
			c0.018,0.049,0.037,0.13,0.038,0.182c0.008,0.519-0.019,0.952-0.045,1.372c-0.071,1.146-0.138,2.229,0.486,5.007
			c0.122,0.543,0.632,1.182,1.126,1.799c0.419,0.524,0.815,1.019,1.047,1.524c0.472,1.028,0.702,2.129,0.924,3.194
			c0.114,0.545,0.231,1.109,0.379,1.645c0.672,2.44,2.098,4.708,4.014,6.385c0.133,0.117,0.192,0.297,0.153,0.47
			c-0.207,0.911-1.777,2.246-3.492,2.602C155.649,75.414,155.616,75.418,155.584,75.418z M144.346,67.53
			c1.399,0,2.741,0.532,3.989,1.114c3.501,1.632,5.946,3.513,7.464,5.742c1.12-0.328,2.01-1.099,2.321-1.562
			c-1.923-1.774-3.353-4.11-4.043-6.616c-0.156-0.566-0.277-1.145-0.393-1.705c-0.221-1.059-0.43-2.059-0.857-2.988
			c-0.183-0.398-0.542-0.848-0.923-1.324c-0.562-0.703-1.143-1.43-1.314-2.19c-0.654-2.912-0.58-4.115-0.507-5.278
			c0.025-0.394,0.047-0.767,0.044-1.209c-0.126-0.266-0.364-0.293-0.439-0.296c-0.073-0.003-0.348,0.011-0.471,0.3
			c-0.961,2.263-1.188,4.417-1.232,6.955c-0.003,0.133-0.06,0.26-0.159,0.349c-0.099,0.09-0.23,0.134-0.364,0.123
			c-0.501-0.042-1.525-0.321-2.62-0.628c-0.274-0.077-0.506-0.142-0.654-0.179c-1.186-0.303-2.378-0.769-3.53-1.22
			c-1.904-0.745-3.872-1.515-5.815-1.537c-0.582-0.007-1.143,0.004-1.614,0.204c-0.053,0.023-0.105,0.048-0.155,0.077
			c-0.069,0.04-0.093,0.101-0.069,0.183c0.015,0.052,0.053,0.142,0.177,0.133c2.065,0.045,4.6,1.339,6.837,2.48
			c0.916,0.467,1.781,0.909,2.51,1.21c0.202,0.084,0.323,0.294,0.294,0.511c-0.03,0.217-0.202,0.387-0.42,0.414
			c-0.893,0.108-1.939,0.201-2.951,0.291c-0.918,0.082-7.186,1.012-9.072,2.095l-0.039,0.022c-0.164,0.099-0.086,0.297-0.077,0.319
			c0.066,0.155,0.162,0.129,0.198,0.119l0,0c3.108-0.841,11.07-1.014,11.408-1.021c0.003,0,0.007,0,0.01,0
			c0.233,0,0.434,0.167,0.475,0.397c0.042,0.234-0.093,0.463-0.317,0.541c-0.558,0.193-1.746,0.447-3.25,0.768
			c-2.53,0.541-6.743,1.442-7.432,2.112c-0.119,0.193-0.152,0.388-0.135,0.446c0.004-0.004,0.042,0.007,0.129,0.007
			c0.062,0,0.148-0.006,0.265-0.027c1.119-0.202,2.279-0.495,3.401-0.778c2.773-0.7,5.169-1.304,6.686-0.59
			c0.131,0.062,0.228,0.179,0.262,0.319c0.035,0.141,0.005,0.289-0.082,0.405c-0.834,1.117-2.559,1.685-3.31,1.887l-3.432,1.631
			c-0.027,0.013-0.055,0.023-0.083,0.031c-0.047,0.02-0.127,0.104-0.167,0.171c0.013,0.005,0.028,0.01,0.046,0.016
			c0.675-0.179,4.111-1.089,6.36-1.639c0.216-0.053,0.432-0.111,0.647-0.169c0.687-0.184,1.398-0.375,2.146-0.411
			C144.175,67.532,144.261,67.53,144.346,67.53z"/>
	</g>
	<g>
		<path style="fill:#ACD4F7;" d="M209.255,161.027c1.132-0.352,2.347-0.263,3.529-0.171c3.224,0.252,6.448,0.504,9.673,0.757
			c1.874,0.146,3.988,0.419,5.106,1.93c0.747,1.008,0.856,2.394,0.494,3.595c-0.362,1.201-1.144,2.237-2.042,3.113
			c-0.948,0.925-2.074,1.717-3.362,2.023c-2.681,0.637-5.367-0.92-7.553-2.599c-1.737-1.335-3.381-2.791-4.916-4.354
			c-0.545-0.555-1.096-1.157-1.296-1.909C208.602,162.341,209.086,161.229,209.255,161.027z"/>
		<path d="M221.392,172.903c-2.55,0-4.928-1.57-6.586-2.845c-1.749-1.344-3.42-2.824-4.966-4.398
			c-0.592-0.603-1.189-1.264-1.418-2.123c-0.326-1.221,0.192-2.494,0.462-2.819c0.06-0.072,0.139-0.124,0.228-0.152
			c1.236-0.384,2.55-0.281,3.71-0.191l9.673,0.757c1.995,0.156,4.226,0.462,5.456,2.124c0.792,1.07,1.005,2.573,0.568,4.021
			c-0.345,1.148-1.054,2.234-2.167,3.32c-1.165,1.136-2.372,1.858-3.588,2.147C222.304,172.854,221.845,172.903,221.392,172.903z
			 M209.567,161.439c-0.152,0.308-0.412,1.106-0.213,1.85c0.169,0.633,0.652,1.163,1.174,1.695c1.515,1.543,3.152,2.993,4.866,4.309
			c1.797,1.381,4.491,3.144,7.148,2.513c1.044-0.248,2.099-0.887,3.137-1.9c0.993-0.968,1.62-1.919,1.917-2.907
			c0.343-1.141,0.182-2.355-0.42-3.169c-0.989-1.336-2.974-1.597-4.757-1.736l-9.673-0.757
			C211.68,161.254,210.58,161.168,209.567,161.439z"/>
	</g>
	<g>
		<path style="fill:#FFFFFF;" d="M184.426,162.362c4.519-14.932,7.889-30.211,9.242-46.43c-8.998-6.776-27.404-8.862-31.334-17.363
			c-5.183-11.212-10.074-19.892-11.729-27.694c0,0,7.586-2.479,7.325-2.539c2.018,5.927,8.861,15.923,14.662,24.215
			c2.789,3.986,16.635,3.725,25.137,6.224c16.052,5.102,24.372,2.076,32.446,15.655c5.153,8.666,4.695,23.22,19.992,44.098
			c-2.284,2.317-4.738,4.467-7.399,6.145c-2.614-3.567-5.227-7.134-7.841-10.702c-1.963-2.679-3.935-5.372-5.45-8.328
			c-1.631-3.181-2.706-6.612-3.772-10.024c-0.969-3.1-1.939-6.2-3.245-9.573c-4.159,14.561-6.159,30.923-14.812,42.924
			C199.614,167.333,191.142,165.479,184.426,162.362z"/>
		<path d="M207.648,169.452c-0.032,0-0.064-0.003-0.096-0.01c-8.129-1.656-16.627-3.533-23.329-6.643
			c-0.218-0.101-0.328-0.347-0.258-0.577c4.948-16.348,7.958-31.419,9.2-46.063c-3.622-2.653-8.804-4.611-13.818-6.505
			c-7.739-2.923-15.048-5.685-17.451-10.882c-1.287-2.785-2.546-5.392-3.764-7.913c-3.618-7.493-6.744-13.964-8-19.883
			c-0.051-0.241,0.088-0.482,0.322-0.559c2.491-0.814,6.521-2.159,7.156-2.443c0.115-0.101,0.274-0.143,0.426-0.108
			c0.188,0.043,0.335,0.197,0.372,0.382c2.001,5.801,8.571,15.44,14.578,24.026c1.616,2.31,7.803,3.168,13.787,3.997
			c3.859,0.535,7.85,1.088,11.09,2.04c4.523,1.438,8.436,2.229,11.889,2.927c8.993,1.819,14.935,3.02,20.836,12.945
			c1.819,3.06,2.959,6.869,4.279,11.281c2.562,8.561,5.75,19.216,15.688,32.778c0.14,0.191,0.121,0.455-0.046,0.624
			c-2.622,2.659-5.07,4.691-7.485,6.214c-0.215,0.135-0.496,0.081-0.646-0.123l-7.841-10.701c-1.943-2.652-3.953-5.395-5.49-8.393
			c-1.653-3.226-2.747-6.721-3.804-10.1c-0.822-2.63-1.666-5.328-2.716-8.172c-0.886,3.227-1.69,6.567-2.471,9.812
			c-2.699,11.206-5.489,22.794-12.018,31.85C207.947,169.379,207.801,169.452,207.648,169.452z M185.009,162.099
			c6.464,2.925,14.603,4.738,22.428,6.337c6.29-8.866,9.031-20.248,11.682-31.258c0.898-3.73,1.827-7.587,2.877-11.263
			c0.057-0.199,0.235-0.34,0.442-0.349c0.209-0.007,0.397,0.115,0.471,0.308c1.311,3.383,2.297,6.539,3.252,9.591
			c1.049,3.353,2.129,6.808,3.745,9.96c1.502,2.93,3.489,5.641,5.41,8.263l7.573,10.336c2.141-1.397,4.323-3.216,6.646-5.542
			c-9.847-13.545-13.164-24.629-15.591-32.739c-1.301-4.35-2.426-8.107-4.184-11.064c-5.683-9.557-11.458-10.725-20.199-12.493
			c-3.477-0.703-7.417-1.5-11.98-2.95c-3.162-0.929-7.117-1.477-10.941-2.007c-6.473-0.897-12.588-1.745-14.445-4.4
			c-5.9-8.433-12.343-17.883-14.546-23.836c-0.86,0.359-2.674,0.961-6.482,2.206c1.29,5.694,4.328,11.984,7.832,19.241
			c1.219,2.525,2.48,5.136,3.77,7.928c2.237,4.84,9.367,7.533,16.916,10.385c5.177,1.956,10.53,3.978,14.27,6.795
			c0.132,0.1,0.204,0.26,0.191,0.425C192.924,130.648,189.934,145.74,185.009,162.099z"/>
	</g>
	<g>
		<path style="fill:#FFFFFF;" d="M213.166,92.568c-1.562,3.391-3.389,6.66-5.737,10.014c0.622,2.21,1.601,4.357,2.892,6.342
			c0.356,0.547,0.786,1.121,1.424,1.337c0.744,0.252,1.512-0.061,2.184-0.369c1.711-0.783,3.523-1.657,4.363-3.255
			c0.365-0.694,0.517-1.479,0.665-2.253c0.562-2.934,1.123-5.868,1.685-8.802c-1.707-0.843-3.414-1.686-5.121-2.529
			C214.756,92.677,213.944,92.288,213.166,92.568z"/>
		<path d="M212.315,110.835c-0.239,0-0.482-0.035-0.725-0.117c-0.764-0.259-1.256-0.889-1.673-1.531
			c-1.321-2.031-2.314-4.21-2.952-6.474c-0.039-0.139-0.014-0.289,0.069-0.407c2.194-3.135,4.057-6.386,5.695-9.939
			c0.054-0.117,0.153-0.208,0.274-0.252c0.984-0.355,1.953,0.123,2.731,0.507l5.121,2.529c0.195,0.096,0.301,0.31,0.26,0.523
			l-1.685,8.802c-0.153,0.799-0.311,1.625-0.712,2.387c-0.876,1.667-2.597,2.557-4.589,3.468
			C213.577,110.584,212.958,110.835,212.315,110.835z M207.955,102.67c0.613,2.092,1.544,4.107,2.77,5.991
			c0.323,0.497,0.689,0.979,1.174,1.144c0.563,0.19,1.212-0.069,1.829-0.351c1.829-0.837,3.402-1.643,4.137-3.04
			c0.334-0.636,0.479-1.39,0.618-2.119l1.616-8.442l-4.792-2.366c-0.583-0.288-1.238-0.609-1.798-0.512
			C211.904,96.43,210.084,99.606,207.955,102.67z"/>
	</g>
	<g>
		<polygon style="fill:#FFFFFF;" points="176.452,207.546 140.089,196.52 99.043,238.851 159.509,228.458 		"/>
		<path d="M99.043,239.333c-0.177,0-0.342-0.097-0.426-0.257c-0.098-0.185-0.065-0.411,0.08-0.561l41.047-42.331
			c0.126-0.13,0.313-0.178,0.486-0.126l36.363,11.026c0.154,0.046,0.274,0.167,0.321,0.32c0.047,0.153,0.015,0.32-0.086,0.445
			l-16.943,20.912c-0.073,0.091-0.178,0.152-0.293,0.172l-60.467,10.393C99.097,239.331,99.07,239.333,99.043,239.333z
			 M140.231,197.067l-39.813,41.059l58.831-10.112l16.378-20.214L140.231,197.067z"/>
	</g>
	<g>
		<polygon style="fill:#FFFFFF;" points="214.493,253.232 210.694,291.04 155.837,312.66 188.675,260.835 		"/>
		<path d="M155.836,313.142c-0.141,0-0.278-0.062-0.372-0.175c-0.133-0.161-0.147-0.389-0.035-0.565l32.839-51.825
			c0.063-0.099,0.159-0.171,0.271-0.204l25.818-7.603c0.154-0.045,0.32-0.011,0.444,0.091c0.124,0.102,0.188,0.26,0.172,0.419
			l-3.799,37.807c-0.018,0.18-0.135,0.334-0.303,0.4l-54.858,21.621C155.956,313.131,155.896,313.142,155.836,313.142z
			 M188.985,261.246l-31.95,50.423l53.209-20.971l3.698-36.802L188.985,261.246z"/>
	</g>
	<g>
		<path style="fill:#FFFFFF;" d="M168.195,267.388c-9.829,8.694-12.153,14.097-15.827,19.297
			c-11.456-10.444-19.848-22.571-24.78-35.987c9.752-1.674,16.042-4.364,23.501-7.896
			C156.42,251.644,163.018,259.531,168.195,267.388z"/>
		<path d="M152.368,287.167c-0.12,0-0.236-0.045-0.325-0.126c-11.586-10.563-19.966-22.734-24.908-36.177
			c-0.049-0.134-0.037-0.284,0.035-0.408c0.072-0.124,0.195-0.21,0.336-0.234c9.861-1.693,16.163-4.441,23.376-7.857
			c0.223-0.105,0.491-0.025,0.619,0.187c3.103,5.147,6.651,9.987,10.081,14.668c2.497,3.407,4.856,6.626,7.015,9.903
			c0.132,0.2,0.096,0.467-0.083,0.627c-7.659,6.774-10.743,11.555-13.464,15.772c-0.766,1.189-1.491,2.311-2.289,3.441
			c-0.08,0.113-0.204,0.186-0.342,0.201C152.402,287.166,152.385,287.167,152.368,287.167z M128.242,251.073
			c4.854,12.925,12.939,24.656,24.046,34.884c0.667-0.965,1.294-1.937,1.953-2.958c2.717-4.212,5.791-8.978,13.321-15.694
			c-2.083-3.138-4.356-6.239-6.757-9.515c-3.361-4.585-6.833-9.322-9.903-14.367C143.922,246.719,137.718,249.384,128.242,251.073z"
			/>
	</g>
	<g>
		<path style="fill:#FFFFFF;" d="M149.039,248.521c2.682,5.786,6.315,11.079,10.759,15.64c4.128,4.237,8.944,7.918,14.278,10.815
			c1.416,0.769,1.328,0.134,2.818,0.796c17.639-4.549,89.265-50.725,109.755-65.343c42.723-30.479,54.76-86.863,54.76-86.863
			s-57.231-6.966-99.955,23.513c-21.376,15.25-87.318,70.102-97.225,85.829C145.146,238.367,146.767,243.621,149.039,248.521z"/>
		<path d="M176.893,276.254c-0.067,0-0.134-0.014-0.195-0.042c-0.631-0.28-0.919-0.297-1.222-0.314
			c-0.391-0.022-0.795-0.045-1.63-0.499c-5.314-2.886-10.157-6.554-14.394-10.902c-4.479-4.596-8.13-9.903-10.851-15.773
			c-2.294-4.948-3.925-10.243-4.848-15.736c-0.02-0.117,0.004-0.237,0.068-0.337c9.909-15.73,75.376-70.286,97.353-85.965
			c22.155-15.806,48.244-21.38,66.228-23.273c19.478-2.05,33.921-0.343,34.065-0.326c0.134,0.016,0.255,0.088,0.334,0.199
			c0.079,0.11,0.107,0.248,0.079,0.381c-0.03,0.142-3.116,14.355-11.393,32.105c-7.643,16.389-21.403,39.244-43.558,55.05
			c-19.62,13.997-91.816,60.75-109.914,65.417C176.974,276.249,176.934,276.254,176.893,276.254z M144.736,233.011
			c0.914,5.343,2.509,10.492,4.741,15.308h0c2.675,5.771,6.264,10.988,10.666,15.506c4.169,4.279,8.934,7.888,14.163,10.728
			c0.645,0.35,0.901,0.365,1.224,0.383c0.318,0.018,0.709,0.04,1.401,0.327c17.494-4.678,88.616-50.373,109.437-65.227
			c21.977-15.678,35.641-38.372,43.234-54.649c7.346-15.748,10.582-28.688,11.216-31.4c-2.77-0.283-16.06-1.434-33.34,0.388
			c-17.862,1.883-43.767,7.418-65.744,23.097C219.873,163.068,154.922,217.163,144.736,233.011z"/>
	</g>
	<g>
		<path style="fill:#FFFFFF;" d="M175.183,266.35c-6.903-5-12.598-11.734-17.09-18.938c-2.518-4.039-4.573-8.296-6.226-12.758
			c-0.852-2.3-1.595-4.649-2.162-7.036c-0.098-0.412-0.191-0.826-0.282-1.241c-2.323,2.583-4.1,4.796-5.194,6.532
			c0.917,5.459,2.538,10.712,4.81,15.613c2.682,5.786,6.315,11.079,10.759,15.64c4.128,4.237,8.944,7.918,14.278,10.815
			c1.416,0.769,1.328,0.134,2.818,0.796c2.254-0.581,5.392-1.844,9.19-3.632C182.189,270.755,178.532,268.776,175.183,266.35z"/>
		<path d="M176.893,276.254c-0.067,0-0.134-0.014-0.195-0.042c-0.631-0.28-0.919-0.297-1.222-0.314
			c-0.391-0.022-0.795-0.045-1.63-0.499c-5.314-2.886-10.157-6.554-14.394-10.902c-4.479-4.596-8.129-9.903-10.851-15.773
			c-2.294-4.948-3.925-10.243-4.848-15.736c-0.02-0.117,0.004-0.236,0.068-0.337c1.071-1.701,2.835-3.921,5.244-6.598
			c0.121-0.135,0.307-0.19,0.482-0.144c0.175,0.047,0.309,0.187,0.348,0.364c0.09,0.412,0.183,0.824,0.28,1.233
			c0.529,2.23,1.231,4.513,2.144,6.98c1.668,4.502,3.748,8.765,6.183,12.671c4.916,7.885,10.624,14.211,16.963,18.803
			c3.406,2.467,7.033,4.393,10.779,5.726c0.184,0.065,0.311,0.235,0.32,0.43c0.01,0.195-0.099,0.377-0.276,0.46
			c-3.959,1.864-7.079,3.096-9.274,3.663C176.974,276.249,176.934,276.254,176.893,276.254z M144.736,233.011
			c0.914,5.343,2.509,10.492,4.741,15.308c2.675,5.771,6.264,10.988,10.666,15.506c4.169,4.279,8.934,7.888,14.163,10.728
			c0.645,0.35,0.901,0.365,1.224,0.383c0.318,0.018,0.708,0.04,1.401,0.327c1.931-0.516,4.584-1.548,7.902-3.073
			c-3.447-1.337-6.783-3.167-9.934-5.449l0,0c-6.441-4.666-12.233-11.083-17.216-19.074c-2.47-3.961-4.579-8.283-6.269-12.846
			c-0.928-2.504-1.641-4.824-2.179-7.092c-0.026-0.11-0.052-0.221-0.077-0.331C147.175,229.643,145.689,231.528,144.736,233.011z"/>
	</g>
	<g>
		<path style="fill:#FFFFFF;" d="M270.283,147.664c2.742,5.049,5.628,10.016,8.742,14.832c3.104,4.802,6.437,9.456,10.079,13.869
			c3.592,4.353,7.486,8.468,11.748,12.229c1.676,1.479,3.413,2.888,5.199,4.242c27.102-30.602,35.357-69.27,35.357-69.27
			s-39.794-4.843-77.788,11.22C265.774,139.117,267.978,143.42,270.283,147.664z"/>
		<path d="M306.051,193.319c-0.102,0-0.204-0.032-0.291-0.098c-1.852-1.404-3.611-2.839-5.227-4.265
			c-4.062-3.584-8.032-7.717-11.801-12.283c-3.469-4.204-6.776-8.755-10.112-13.915c-2.893-4.475-5.759-9.337-8.761-14.864l0,0
			c-2.093-3.853-4.212-7.95-6.67-12.894c-0.059-0.119-0.067-0.257-0.02-0.382c0.046-0.125,0.142-0.225,0.264-0.277
			c19.69-8.324,39.855-10.941,53.303-11.671c14.571-0.791,24.63,0.404,24.731,0.416c0.134,0.016,0.255,0.088,0.334,0.199
			c0.079,0.11,0.107,0.248,0.079,0.381c-0.021,0.097-2.135,9.863-7.54,23.24c-4.988,12.345-13.883,30.391-27.928,46.25
			C306.318,193.264,306.185,193.319,306.051,193.319z M270.707,147.434c2.99,5.505,5.844,10.346,8.723,14.8
			c3.315,5.128,6.601,9.65,10.046,13.824c3.736,4.528,7.671,8.624,11.695,12.174c1.495,1.319,3.113,2.645,4.816,3.948
			c13.778-15.669,22.527-33.433,27.451-45.615c4.671-11.555,6.87-20.392,7.38-22.579c-2.25-0.23-11.449-1.037-24.052-0.352
			c-13.258,0.721-33.081,3.286-52.484,11.396C266.638,139.76,268.685,143.712,270.707,147.434L270.707,147.434z"/>
	</g>
	<g>
		<path style="fill:#FFFFFF;" d="M306.061,178.808c-3.352-3.583-6.533-7.325-9.535-11.206c-3.02-3.905-5.867-7.943-8.505-12.116
			c-2.616-4.138-5.046-8.399-7.238-12.777c-1.999-3.993-3.827-8.075-5.477-12.225c-3.884,1.234-7.794,2.657-11.685,4.302
			c2.153,4.331,4.357,8.634,6.662,12.878c2.742,5.049,5.628,10.016,8.742,14.832c3.104,4.802,6.437,9.456,10.079,13.869
			c3.592,4.353,7.486,8.468,11.748,12.229c1.676,1.479,3.413,2.888,5.199,4.242c2.222-2.509,4.311-5.074,6.286-7.666
			C310.18,183.114,308.092,180.98,306.061,178.808z"/>
		<path d="M306.051,193.319c-0.102,0-0.204-0.032-0.291-0.098c-1.852-1.404-3.611-2.839-5.227-4.265
			c-4.062-3.584-8.032-7.717-11.801-12.283c-3.469-4.204-6.776-8.755-10.112-13.915c-2.893-4.475-5.759-9.337-8.761-14.864
			c-2.093-3.853-4.212-7.95-6.67-12.894c-0.059-0.119-0.067-0.257-0.02-0.382c0.046-0.125,0.142-0.225,0.264-0.277
			c3.74-1.581,7.685-3.034,11.727-4.318c0.241-0.077,0.5,0.046,0.594,0.282c1.639,4.124,3.476,8.225,5.459,12.187
			c2.111,4.215,4.538,8.5,7.215,12.736c2.558,4.047,5.411,8.111,8.479,12.079c2.988,3.864,6.186,7.623,9.505,11.172l0,0
			c2.198,2.35,4.245,4.425,6.256,6.342c0.178,0.17,0.2,0.446,0.051,0.641c-2.064,2.709-4.187,5.297-6.308,7.694
			C306.318,193.264,306.185,193.319,306.051,193.319z M264.282,135.031c2.356,4.728,4.404,8.681,6.425,12.403
			c2.99,5.505,5.844,10.346,8.723,14.8c3.315,5.128,6.601,9.65,10.046,13.824c3.736,4.528,7.671,8.624,11.695,12.174
			c1.495,1.319,3.113,2.645,4.816,3.948c1.918-2.182,3.834-4.52,5.705-6.961c-1.925-1.847-3.886-3.841-5.983-6.083l0,0
			c-3.339-3.571-6.557-7.353-9.564-11.241c-3.086-3.992-5.957-8.081-8.531-12.154c-2.694-4.262-5.137-8.575-7.262-12.819
			c-1.929-3.853-3.72-7.836-5.327-11.845C271.331,132.266,267.721,133.594,264.282,135.031z"/>
	</g>
	<g>
		
			<ellipse transform="matrix(0.1706 -0.9853 0.9853 0.1706 12.8817 402.7737)" style="fill:#FFFFFF;" cx="245.699" cy="193.735" rx="19.146" ry="19.146"/>
		<path d="M245.741,213.367c-1.089,0-2.185-0.091-3.28-0.274c-5.171-0.865-9.695-3.692-12.74-7.96
			c-3.045-4.268-4.245-9.466-3.381-14.637c0.865-5.171,3.692-9.695,7.96-12.74c4.268-3.045,9.465-4.247,14.637-3.381
			c5.171,0.865,9.696,3.692,12.74,7.96c3.045,4.268,4.246,9.466,3.381,14.637c-0.865,5.171-3.692,9.695-7.96,12.74
			C253.734,212.113,249.792,213.367,245.741,213.367z M245.659,175.067c-3.852,0-7.6,1.192-10.799,3.475
			c-4.058,2.895-6.746,7.198-7.569,12.115c-0.822,4.917,0.319,9.86,3.214,13.918c2.895,4.058,7.198,6.746,12.115,7.569
			c4.917,0.823,9.86-0.319,13.918-3.214c4.058-2.895,6.746-7.198,7.569-12.115c0.823-4.917-0.319-9.86-3.214-13.918
			c-2.895-4.058-7.198-6.746-12.115-7.569C247.737,175.153,246.694,175.067,245.659,175.067z"/>
	</g>
	<g>
		<path style="fill:#FFFFFF;" d="M237.74,182.579c6.161-4.395,14.719-2.964,19.114,3.197c4.395,6.161,2.964,14.719-3.197,19.114
			s-14.719,2.964-19.114-3.197S231.579,186.975,237.74,182.579z"/>
		<path d="M245.729,207.924c-0.787,0-1.579-0.066-2.37-0.198c-3.737-0.625-7.007-2.668-9.208-5.753
			c-2.201-3.085-3.069-6.842-2.443-10.579c0.625-3.737,2.668-7.007,5.753-9.208l0,0c6.367-4.543,15.244-3.058,19.787,3.31
			c2.201,3.085,3.068,6.842,2.443,10.579c-0.625,3.737-2.668,7.007-5.753,9.208C251.506,207.018,248.657,207.924,245.729,207.924z
			 M238.02,182.971L238.02,182.971c-2.875,2.051-4.779,5.099-5.362,8.582c-0.582,3.483,0.226,6.985,2.277,9.86
			c2.051,2.875,5.099,4.779,8.582,5.362c3.482,0.582,6.985-0.226,9.86-2.277c2.875-2.051,4.779-5.099,5.362-8.582
			c0.583-3.483-0.226-6.985-2.277-9.86C252.228,180.122,243.955,178.739,238.02,182.971z"/>
	</g>
	<g>
		
			<ellipse transform="matrix(0.9932 -0.1164 0.1164 0.9932 -25.4905 23.7893)" style="fill:#FFFFFF;" cx="190.994" cy="230.204" rx="16.198" ry="16.198"/>
		<path d="M191.017,246.878c-5.212,0-10.35-2.43-13.601-6.987c-2.588-3.627-3.608-8.044-2.873-12.439
			c0.735-4.394,3.138-8.239,6.764-10.827l0,0c3.627-2.588,8.044-3.607,12.439-2.873c4.394,0.735,8.239,3.137,10.827,6.764
			c2.588,3.627,3.608,8.044,2.873,12.439c-0.735,4.394-3.137,8.24-6.764,10.827C197.751,245.874,194.369,246.878,191.017,246.878z
			 M190.961,214.485c-3.244,0-6.4,1.004-9.094,2.926l0,0c-3.417,2.438-5.681,6.061-6.373,10.201
			c-0.693,4.14,0.269,8.302,2.707,11.72c5.033,7.054,14.866,8.699,21.921,3.667c3.417-2.438,5.681-6.061,6.373-10.201
			c0.693-4.14-0.269-8.302-2.707-11.72c-2.438-3.417-6.061-5.681-10.201-6.373C192.71,214.557,191.832,214.485,190.961,214.485z
			 M181.587,217.018h0.003H181.587z"/>
	</g>
	<g>
		<path style="fill:#FFFFFF;" d="M184.261,220.766c5.212-3.719,12.453-2.508,16.171,2.705c3.719,5.212,2.508,12.453-2.705,16.171
			c-5.212,3.719-12.453,2.508-16.171-2.705C177.838,231.725,179.049,224.485,184.261,220.766z"/>
		<path d="M191.02,242.283c-0.67,0-1.344-0.056-2.018-0.168c-3.181-0.532-5.965-2.271-7.838-4.897
			c-3.867-5.421-2.602-12.977,2.817-16.844l0,0c2.626-1.873,5.823-2.612,9.005-2.08c3.181,0.532,5.965,2.271,7.838,4.897
			c1.873,2.626,2.612,5.824,2.08,9.005c-0.532,3.181-2.271,5.965-4.898,7.838C195.938,241.511,193.512,242.283,191.02,242.283z
			 M190.971,219.09c-2.293,0-4.525,0.71-6.429,2.068l0,0c-4.988,3.558-6.151,10.511-2.593,15.499
			c1.724,2.416,4.285,4.017,7.213,4.506c2.929,0.489,5.87-0.19,8.286-1.914c2.416-1.724,4.017-4.285,4.506-7.213
			c0.49-2.927-0.19-5.87-1.914-8.286c-1.724-2.416-4.285-4.016-7.213-4.506C192.207,219.141,191.587,219.09,190.971,219.09z
			 M184.261,220.766h0.003H184.261z"/>
	</g>
	<g>
		<path style="fill:#FFFFFF;" d="M209.622,113.877c-2.54,3.142-5.308,6.161-8.674,8.395c-3.366,2.234-7.402,3.641-11.427,3.291
			c-4.599-0.4-8.915-3.03-13.519-2.697c-4.206,0.304-7.889,3.041-12.066,3.91c2.892,1.802,5.785,3.605,8.677,5.407
			c1.435,0.894,2.891,1.798,4.507,2.296c1.952,0.602,4.042,0.581,6.076,0.387c11.27-1.076,21.893-7.606,27.942-17.176
			c0.474-0.749,0.935-1.569,0.913-2.455C212.028,114.347,211.323,113.42,209.622,113.877z"/>
		<path d="M180.889,135.47c-1.248,0-2.597-0.126-3.912-0.531c-1.687-0.52-3.178-1.449-4.619-2.348l-8.678-5.407
			c-0.167-0.104-0.254-0.3-0.22-0.494c0.035-0.194,0.184-0.348,0.376-0.388c1.787-0.372,3.528-1.114,5.211-1.832
			c2.201-0.939,4.478-1.91,6.918-2.087c2.705-0.195,5.322,0.6,7.852,1.37c1.873,0.57,3.809,1.159,5.744,1.327
			c3.578,0.309,7.528-0.83,11.119-3.213c3.555-2.358,6.445-5.672,8.566-8.296c0.064-0.079,0.152-0.136,0.25-0.163
			c1.167-0.313,1.879-0.029,2.271,0.265c0.47,0.352,0.748,0.915,0.764,1.546c0.025,1.032-0.497,1.947-0.988,2.724
			c-6.097,9.647-16.943,16.314-28.303,17.399C182.531,135.412,181.733,135.47,180.889,135.47z M165.158,126.969l7.71,4.804
			c1.39,0.866,2.827,1.761,4.393,2.244c2.041,0.629,4.219,0.527,5.888,0.367c11.07-1.057,21.639-7.553,27.58-16.954
			c0.435-0.688,0.858-1.423,0.839-2.186c-0.008-0.334-0.146-0.624-0.377-0.798c-0.292-0.218-0.738-0.266-1.296-0.142
			c-2.155,2.657-5.074,5.975-8.68,8.368c-3.772,2.503-7.936,3.7-11.735,3.369c-2.035-0.177-4.021-0.781-5.942-1.366
			c-2.558-0.779-4.975-1.513-7.501-1.331c-2.279,0.165-4.382,1.062-6.609,2.012C168.048,125.946,166.631,126.55,165.158,126.969z"/>
	</g>
	<g>
		<path style="fill:#FFFFFF;" d="M223.631,221.403c-1.608,3.044-3.353,6.015-4.972,9.692c1.916,1.18,3.831,2.36,5.747,3.54
			c2.837,1.748,5.705,3.51,8.997,4.37c0.283-2.207-1.008-4.302-2.446-6.001c-1.437-1.699-3.118-3.291-3.883-5.381
			c-0.412-1.125-0.533-2.338-0.916-3.474C225.774,223.014,225.036,221.892,223.631,221.403z"/>
		<path d="M233.403,239.488c-0.041,0-0.082-0.005-0.122-0.016c-3.373-0.882-6.298-2.684-9.128-4.426l-5.748-3.54
			c-0.205-0.127-0.285-0.385-0.188-0.605c1.212-2.75,2.491-5.105,3.727-7.382c0.426-0.785,0.848-1.561,1.26-2.342
			c0.111-0.211,0.359-0.309,0.585-0.23c1.332,0.464,2.309,1.517,2.825,3.047c0.19,0.562,0.317,1.139,0.44,1.697
			c0.137,0.618,0.266,1.203,0.472,1.765c0.581,1.587,1.766,2.925,2.912,4.218c0.299,0.338,0.598,0.676,0.887,1.017
			c1.97,2.33,2.806,4.415,2.556,6.374c-0.018,0.137-0.093,0.261-0.208,0.339C233.592,239.459,233.498,239.488,233.403,239.488z
			 M219.27,230.906l5.388,3.318c2.607,1.605,5.297,3.262,8.301,4.156c-0.003-1.524-0.783-3.188-2.371-5.066
			c-0.284-0.336-0.578-0.668-0.873-1.001c-1.205-1.361-2.451-2.767-3.095-4.526c-0.228-0.623-0.37-1.266-0.508-1.889
			c-0.123-0.557-0.24-1.084-0.412-1.597c-0.371-1.099-0.992-1.866-1.849-2.287c-0.348,0.654-0.702,1.306-1.059,1.963
			C221.623,226.132,220.416,228.355,219.27,230.906z"/>
	</g>
	<g>
		<path style="fill:#ACD4F7;" d="M184.442,162.142c-1.205,6.686-1.938,11.827,2.508,16.963c4.649,5.371,12.384,4.973,27.796,4.973
			c0.982,0,5.579,0.287,6.399,0.827c1.265,0.833,0.486,25.116-0.213,39.544c2.95,0.567,5.9,1.134,8.674,0.754
			c12.023-52.775,8.399-48.628,4.486-52.88c-5.093-5.535-19.582-7.176-23.144-7.598c-2.986-0.354-5.981-0.708-8.987-0.694
			C195.668,164.06,188.354,165.359,184.442,162.142z"/>
		<path d="M227.705,225.809c-2.26,0-4.592-0.448-6.865-0.886c-0.236-0.045-0.402-0.257-0.391-0.497
			c0.864-17.828,1.288-37.513,0.386-39.144c-0.747-0.396-4.75-0.722-6.09-0.722c-1.028,0-2.022,0.002-2.983,0.003
			c-13.343,0.024-20.694,0.037-25.178-5.143c-4.756-5.495-3.718-11.261-2.618-17.365c0.031-0.168,0.148-0.308,0.308-0.367
			c0.161-0.059,0.341-0.028,0.473,0.08c2.911,2.394,8.016,2.154,12.952,1.921c1.41-0.066,2.869-0.135,4.258-0.141
			c3.025-0.023,6.092,0.348,9.046,0.698l0.158,0.019c12.038,1.423,19.872,4.024,23.284,7.732c0.387,0.421,0.775,0.759,1.151,1.086
			c3.543,3.086,5.321,4.635-5.522,52.228c-0.045,0.196-0.206,0.343-0.405,0.371C229.025,225.77,228.368,225.809,227.705,225.809z
			 M221.433,224.055c2.617,0.501,5.301,0.981,7.778,0.711c10.632-46.711,8.793-48.308,5.754-50.956
			c-0.395-0.344-0.804-0.7-1.227-1.16c-2.235-2.429-7.986-5.69-22.687-7.427l-0.158-0.019c-2.925-0.346-5.954-0.707-8.928-0.691
			c-1.369,0.006-2.817,0.074-4.217,0.14c-4.788,0.226-9.73,0.458-12.965-1.666c-1.173,6.679-1.471,11.174,2.533,15.801
			c4.195,4.846,10.968,4.832,24.447,4.81c0.962-0.002,1.956-0.003,2.984-0.003c0.447,0,5.617,0.217,6.664,0.907
			c0.4,0.264,1.07,0.706,0.847,15.084C222.151,206.369,221.844,215.486,221.433,224.055z M220.818,185.253L220.818,185.253
			L220.818,185.253z"/>
	</g>
	<g>
		<g>
			<path style="fill:#ACD4F7;" d="M204.611,65.451c0.181,3.79,0.452,7.196,1.216,12.195c0.364,2.378,1.144,5.052,2.15,7.289
				c0.473,1.052,0.872,1.581,1.977,2.243c0.168-0.998,1.266-1.389,1.531-2.371c0.327-1.208-0.351-2.373,0.501-3.385
				c1.624-1.928,2.819-4.103,3.51-6.391c0.568-1.878,0.79-3.893,0.07-5.756c-0.72-1.863-2.53-3.539-4.848-3.938
				C208.953,65.033,206.123,64.472,204.611,65.451z"/>
			<path d="M209.954,87.661c-0.086,0-0.172-0.023-0.248-0.069c-1.237-0.742-1.685-1.384-2.169-2.459
				c-1.014-2.255-1.812-4.957-2.187-7.414c-0.771-5.046-1.039-8.426-1.221-12.245c-0.008-0.171,0.075-0.334,0.219-0.428
				c1.594-1.032,4.351-0.551,6.175-0.233l0.277,0.048c2.328,0.402,4.375,2.066,5.215,4.24c0.671,1.736,0.652,3.721-0.058,6.07
				c-0.715,2.364-1.927,4.572-3.603,6.562c-0.388,0.461-0.357,0.976-0.316,1.628c0.029,0.475,0.062,1.014-0.088,1.572
				c-0.16,0.59-0.543,0.992-0.88,1.347c-0.31,0.325-0.578,0.606-0.641,0.979c-0.027,0.157-0.129,0.291-0.274,0.358
				C210.092,87.646,210.023,87.661,209.954,87.661z M205.107,65.725c0.18,3.668,0.452,6.976,1.197,11.849
				c0.363,2.374,1.134,4.986,2.114,7.164c0.356,0.791,0.645,1.238,1.294,1.707c0.182-0.326,0.432-0.588,0.662-0.83
				c0.296-0.31,0.551-0.579,0.647-0.933c0.11-0.405,0.084-0.821,0.057-1.261c-0.045-0.727-0.096-1.552,0.541-2.308
				c1.591-1.889,2.741-3.981,3.418-6.219c0.645-2.135,0.672-3.915,0.081-5.443c-0.72-1.864-2.479-3.292-4.48-3.637l-0.28-0.049
				C208.779,65.488,206.44,65.08,205.107,65.725z"/>
		</g>
		<g>
			<path style="fill:#FFFFFF;" d="M232.174,74.196c-0.332,3.309,0.177,6.651,0.037,9.973c-0.14,3.322-1.037,6.789-3.704,9.202
				c-2.348,2.125-5.972,3.193-9.419,2.778c-3.448-0.416-6.628-2.305-8.267-4.91c-1.541-2.45-1.597-7.637-1.727-10.238
				c-1.55,0.164-3.237-0.395-4.117-1.499c-0.88-1.104-0.796-2.72,0.314-3.635c1.11-0.914,2.473-1,3.952,0.513
				c-0.005-2.137,0.461-4.202,0.67-5.152c0.567-2.577,0.8-6.431,2.662-7.452c1.054-0.578,3.241-1.023,4.466-1.28
				c2.117-0.444,4.961,1.019,7.15,1.117c2.189,0.098,4.378,1.249,6.09,2.424C232.33,67.443,232.423,71.72,232.174,74.196z"/>
			<path d="M220.578,96.72c-0.517,0-1.033-0.03-1.548-0.092c-3.597-0.434-6.899-2.4-8.617-5.132
				c-1.451-2.307-1.638-6.693-1.761-9.596c-0.006-0.133-0.011-0.263-0.017-0.388c-1.609,0.023-3.178-0.632-4.035-1.709
				c-1.077-1.351-0.908-3.243,0.384-4.308c0.73-0.601,2.118-1.322,3.807-0.138c0.105-1.755,0.454-3.339,0.637-4.17l0.014-0.064
				c0.115-0.526,0.217-1.103,0.324-1.715c0.422-2.407,0.899-5.135,2.578-6.056c1.078-0.591,3.195-1.035,4.46-1.3l0.139-0.029
				c1.363-0.285,2.93,0.134,4.447,0.54c1.018,0.272,1.979,0.53,2.824,0.567c1.908,0.086,4.041,0.929,6.341,2.508
				c2.638,1.811,2.212,7.486,2.1,8.605l-0.48-0.048l0.48,0.048c-0.184,1.833-0.103,3.726-0.025,5.556
				c0.062,1.437,0.125,2.922,0.063,4.39c-0.175,4.17-1.475,7.379-3.861,9.54C226.728,95.632,223.67,96.72,220.578,96.72z
				 M209.094,80.519c0.115,0,0.226,0.041,0.314,0.116c0.1,0.086,0.161,0.21,0.168,0.342c0.014,0.268,0.026,0.564,0.04,0.881
				c0.112,2.631,0.3,7.034,1.614,9.124c1.568,2.492,4.601,4.289,7.917,4.688c3.323,0.401,6.785-0.617,9.038-2.656
				c2.188-1.98,3.381-4.963,3.545-8.865c0.06-1.427-0.002-2.891-0.063-4.308c-0.08-1.864-0.162-3.791,0.029-5.693
				c0.284-2.83,0.012-6.548-1.686-7.713c-2.149-1.475-4.114-2.262-5.839-2.34c-0.95-0.043-2.007-0.326-3.03-0.599
				c-1.408-0.377-2.865-0.767-4-0.528l-0.139,0.029c-1.212,0.254-3.242,0.679-4.194,1.201c-1.272,0.697-1.707,3.183-2.091,5.376
				c-0.109,0.622-0.212,1.21-0.332,1.756l-0.014,0.064c-0.211,0.956-0.649,2.946-0.644,4.983c0,0.196-0.118,0.373-0.3,0.448
				c-0.181,0.074-0.39,0.031-0.527-0.109c-1.165-1.192-2.245-1.347-3.301-0.477c-0.882,0.726-0.988,2.027-0.243,2.962
				c0.74,0.929,2.257,1.473,3.689,1.32C209.061,80.52,209.077,80.519,209.094,80.519z"/>
		</g>
		<g>
			<path style="fill:#ACD4F7;" d="M222.351,68.266c0.172,1.496,2.229,3.796,3.64,4.089c1.411,0.293,2.015-0.31,2.731-1.621
				c1.15,1.255,1.981,2.499,3.223,3.125c1.897,0.956,4.468-0.029,5.338-2.045c0.869-2.016-0.13-4.674-2.075-5.519
				c1.316,0.463,2.806-0.765,2.982-2.21c0.177-1.444-0.702-2.859-1.881-3.624c-1.18-0.765-2.608-0.987-3.985-1.333
				c0.672-1.349,0.18-3.107-0.891-4.126c-1.07-1.02-2.587-1.394-4.037-1.366c-0.953,0.018-1.93,0.204-2.736,0.74
				c-0.806,0.536-1.413,1.47-1.482,2.531c-1.088-1.71-2.999-2.982-4.952-2.723s-3.631,2.442-3.941,4.032
				c-0.809-1.236-1.925-2.299-3.361-2.37c-2.85-0.141-3.739,2.205-2.784,5.442c-1.432-0.901-3.748-0.484-4.692,1.637
				c-0.703,1.579-0.373,4.243,0.631,5.639c1.004,1.397,4.901,2.903,7.914,1.186c1.674-0.954,2.57-2.4,3.171-3.783
				c0.682,1.514,1.188,2.559,3.196,3.458C219.824,70.08,221.69,69.662,222.351,68.266z"/>
			<path d="M233.538,74.707c-0.638,0-1.259-0.14-1.811-0.418c-1.019-0.513-1.769-1.389-2.562-2.317
				c-0.119-0.139-0.239-0.279-0.363-0.422c-0.593,0.926-1.366,1.597-2.909,1.277c-1.312-0.272-3.027-1.973-3.723-3.506
				c-0.973,0.923-2.576,1.184-4.009,0.543c-1.735-0.776-2.459-1.712-3.005-2.778c-0.565,1.046-1.447,2.238-2.926,3.081
				c-3.287,1.875-7.459,0.186-8.544-1.323c-1.119-1.557-1.437-4.416-0.68-6.117c0.487-1.095,1.35-1.879,2.431-2.208
				c0.659-0.201,1.361-0.213,2.004-0.048c-0.327-1.673-0.126-3.061,0.59-3.97c0.444-0.563,1.307-1.22,2.915-1.139
				c1.161,0.057,2.223,0.663,3.166,1.804c0.694-1.612,2.29-3.229,4.049-3.463c1.686-0.224,3.477,0.574,4.778,2.076
				c0.281-0.726,0.787-1.364,1.453-1.807c0.784-0.522,1.792-0.798,2.994-0.82c1.771-0.034,3.329,0.499,4.379,1.499
				c1.149,1.094,1.61,2.751,1.206,4.136c0.077,0.018,0.153,0.036,0.23,0.054c1.149,0.268,2.338,0.545,3.37,1.214
				c1.44,0.933,2.283,2.575,2.098,4.087c-0.114,0.927-0.69,1.816-1.505,2.322c-0.166,0.103-0.336,0.187-0.508,0.251
				c1.319,1.321,1.837,3.51,1.07,5.288c-0.477,1.107-1.436,1.991-2.631,2.425C234.583,74.614,234.055,74.707,233.538,74.707z
				 M228.721,70.251c0.134,0,0.263,0.056,0.355,0.156c0.292,0.318,0.561,0.633,0.821,0.937c0.76,0.889,1.416,1.656,2.263,2.083
				c0.763,0.384,1.712,0.42,2.603,0.095c0.946-0.344,1.702-1.036,2.075-1.9c0.764-1.772-0.122-4.146-1.825-4.886
				c-0.238-0.103-0.352-0.377-0.257-0.618c0.095-0.242,0.365-0.364,0.609-0.279c0.4,0.141,0.858,0.073,1.287-0.194
				c0.564-0.35,0.978-0.986,1.056-1.619c0.163-1.333-0.719-2.548-1.665-3.161c-0.891-0.577-1.947-0.824-3.065-1.084
				c-0.259-0.06-0.518-0.121-0.776-0.186c-0.142-0.036-0.259-0.133-0.321-0.266c-0.061-0.133-0.058-0.286,0.007-0.417
				c0.541-1.086,0.201-2.617-0.791-3.562c-0.866-0.824-2.182-1.258-3.695-1.233c-1.016,0.019-1.849,0.241-2.478,0.659
				c-0.727,0.483-1.212,1.311-1.268,2.161c-0.014,0.208-0.16,0.384-0.362,0.436c-0.203,0.052-0.414-0.032-0.526-0.208
				c-1.105-1.736-2.866-2.72-4.482-2.504c-1.768,0.235-3.272,2.317-3.531,3.647c-0.038,0.192-0.188,0.343-0.38,0.381
				c-0.194,0.037-0.389-0.045-0.496-0.209c-0.901-1.375-1.904-2.099-2.982-2.152c-0.956-0.046-1.669,0.212-2.109,0.772
				c-0.639,0.812-0.708,2.289-0.188,4.052c0.057,0.192-0.012,0.4-0.171,0.521c-0.16,0.121-0.378,0.131-0.548,0.024
				c-0.611-0.384-1.419-0.478-2.164-0.252c-0.809,0.246-1.459,0.842-1.831,1.677c-0.626,1.407-0.349,3.867,0.582,5.162
				c0.81,1.126,4.402,2.691,7.284,1.048c1.694-0.966,2.505-2.492,2.968-3.556c0.076-0.175,0.248-0.289,0.439-0.29
				c0.001,0,0.002,0,0.003,0c0.19,0,0.362,0.111,0.44,0.284c0.643,1.429,1.068,2.372,2.953,3.216
				c1.166,0.521,2.793,0.274,3.36-0.924c0.092-0.194,0.301-0.305,0.514-0.27c0.213,0.035,0.376,0.207,0.4,0.421
				c0.149,1.291,2.037,3.418,3.259,3.672c1.038,0.216,1.493-0.068,2.209-1.38c0.074-0.137,0.21-0.229,0.365-0.248
				C228.683,70.252,228.702,70.251,228.721,70.251z"/>
		</g>
		<g>
			<path d="M228.615,78.668c0.088-0.402-0.184-0.803-0.608-0.896c-0.424-0.093-0.839,0.157-0.927,0.56
				c-0.088,0.402,0.184,0.803,0.608,0.896C228.112,79.321,228.527,79.07,228.615,78.668z"/>
		</g>
		<g>
			<path d="M217.663,78.126c0.088-0.402-0.184-0.803-0.608-0.896c-0.424-0.093-0.839,0.157-0.927,0.56
				c-0.088,0.402,0.184,0.803,0.608,0.896C217.159,78.779,217.574,78.528,217.663,78.126z"/>
		</g>
		<g>
			<path d="M219.996,91.49c-1.393,0-2.771-0.698-3.567-1.852c-0.151-0.219-0.096-0.519,0.123-0.671
				c0.219-0.151,0.519-0.097,0.671,0.123c0.7,1.014,2.042,1.589,3.256,1.398c0.265-0.041,0.51,0.139,0.551,0.402
				c0.041,0.263-0.139,0.51-0.402,0.551C220.418,91.474,220.206,91.49,219.996,91.49z"/>
		</g>
		<g>
			<path d="M222.282,87.584c-0.359,0-0.702-0.042-1.025-0.127c-0.863-0.226-1.573-0.761-1.948-1.469
				c-0.125-0.235-0.035-0.527,0.2-0.652c0.236-0.124,0.527-0.035,0.652,0.2c0.246,0.463,0.747,0.833,1.34,0.988
				c0.538,0.141,1.161,0.126,1.853-0.044c0.221-0.054,0.468-0.129,0.622-0.273c0.182-0.171,0.269-0.483,0.232-0.835
				c-0.034-0.325-0.156-0.653-0.286-1l-0.063-0.17c-0.779-2.132-1.06-4.45-0.816-6.705c0.028-0.265,0.262-0.457,0.531-0.427
				c0.265,0.029,0.456,0.267,0.427,0.531c-0.229,2.109,0.035,4.276,0.763,6.27l0.061,0.164c0.145,0.388,0.294,0.789,0.341,1.236
				c0.07,0.66-0.124,1.258-0.532,1.64c-0.316,0.296-0.708,0.422-1.051,0.506C223.13,87.528,222.695,87.584,222.282,87.584z"/>
		</g>
		<g>
			<path d="M209.243,78.562c-0.26,0-0.474-0.207-0.482-0.469c-0.026-0.922-0.02-1.413-0.01-2.305
				c0.003-0.264,0.218-0.477,0.482-0.477c0.002,0,0.003,0,0.005,0c0.266,0.003,0.48,0.221,0.477,0.488
				c-0.01,0.909-0.015,1.365,0.01,2.267c0.007,0.266-0.202,0.488-0.468,0.495C209.252,78.562,209.248,78.562,209.243,78.562z"/>
		</g>
		<g>
			<path d="M207.3,67.853c-0.086,0-0.174-0.023-0.252-0.072c-1.434-0.882-2.215-2.715-1.858-4.359
				c0.056-0.26,0.314-0.425,0.574-0.369c0.26,0.057,0.425,0.313,0.369,0.574c-0.273,1.257,0.324,2.659,1.42,3.333
				c0.227,0.14,0.298,0.437,0.158,0.663C207.62,67.771,207.462,67.853,207.3,67.853z"/>
		</g>
		<g style="opacity:0.1294;">
			<path d="M215.438,65.936c0.158,0.239,0.324,0.473,0.497,0.702c0.014,0.049,0.04,0.125,0.102,0.298
				c0.099,0.238,0.22,0.466,0.347,0.691c0.509,0.757,1.03,1.259,1.555,1.636c0.124-0.17,0.361-0.26,0.566-0.145
				c0.033,0.015,0.066,0.028,0.1,0.042c0.016,0.004,0.034,0.009,0.058,0.016c0.4,0.074,0.79,0.205,1.197,0.227
				c-0.044-0.003-0.087-0.007-0.131-0.01c0.127,0.036,0.75-0.003,1.244-0.091c0.028-0.006,0.083-0.017,0.136-0.029
				c0.102-0.034,0.213-0.031,0.315,0.002c0.025-0.007,0.05-0.014,0.078-0.018c0.005-0.008,0.011-0.019,0.024-0.037
				c0.004-0.008,0.008-0.017,0.011-0.026c-0.003-0.046-0.004-0.091,0-0.137c0.031-0.338,0.42-0.604,0.742-0.49
				c0.332,0.072,0.488,0.436,0.468,0.757c0.049,0.114,0.104,0.225,0.165,0.333c0.263,0.404,0.568,0.782,0.87,1.158
				c0.058,0.073,0.223,0.255,0.25,0.289c0.014,0.014,0.027,0.029,0.04,0.043c0.347,0.353,1.063,0.952,1.757,1.172
				c0.004,0.001,0.007,0.002,0.01,0.003c0.166,0.037,0.335,0.054,0.504,0.059c0.046-0.003,0.104-0.008,0.155-0.017
				c0.024-0.008,0.049-0.014,0.073-0.024c0.059-0.024,0.116-0.053,0.172-0.082c0.012-0.008,0.026-0.017,0.045-0.029
				c0.021-0.014,0.04-0.031,0.06-0.045c0.19,0.001,0.383-0.041,0.546-0.129c0.185-0.045,0.344-0.134,0.488-0.269
				c0.077-0.073,0.139-0.158,0.198-0.246c0.008-0.012,0.016-0.025,0.024-0.038c0.004-0.002,0.025-0.024,0.032-0.032
				c0.029-0.032,0.057-0.064,0.085-0.096c0.189-0.217,0.355-0.449,0.485-0.703c0.005,0,0.01,0,0.015,0.001
				c0.208,0.031,0.409,0.174,0.488,0.372c0.029,0.09,0.066,0.177,0.108,0.262c0.012,0.024,0.025,0.048,0.038,0.071
				c0.005,0.007,0.013,0.021,0.029,0.049c-0.001-0.001-0.002-0.002-0.003-0.002c0.004,0.007,0.008,0.014,0.012,0.02
				c0.151,0.175,0.268,0.382,0.428,0.551c0.062,0.067,0.127,0.13,0.192,0.194c0.018,0.017,0.038,0.037,0.059,0.058
				c0.008,0.008,0.017,0.016,0.027,0.026c0.33,0.321,0.698,0.602,1.079,0.86c0.258,0.207,0.627,0.314,0.802,0.605
				c0.382,0.602-0.402,1.299-0.966,0.861c-0.807-0.507-1.564-1.103-2.148-1.863c-0.097-0.123-0.188-0.252-0.273-0.384
				c-0.409,0.495-0.889,0.936-1.461,1.22c-0.865,0.366-1.859,0.1-2.622-0.389c-0.743-0.47-0.998-0.788-1.39-1.202
				c-0.379-0.436-0.728-0.897-1.013-1.399c-0.248,0.274-0.542,0.508-0.874,0.669c-0.46,0.206-0.992,0.288-1.488,0.18
				c0.022,0.006,0.045,0.012,0.063,0.017c-0.05-0.006-0.099-0.013-0.148-0.022c-0.63-0.119-1.209-0.411-1.754-0.739
				c-0.794-0.483-1.522-1.095-2.079-1.842c-0.337-0.478-0.637-0.995-0.799-1.561c-0.031-0.141-0.01-0.016,0.016,0.058
				c-0.078-0.209-0.138-0.424-0.195-0.64c-0.034-0.126-0.078-0.26-0.026-0.386C214.896,66.009,215.183,65.89,215.438,65.936z"/>
		</g>
		<g style="opacity:0.1294;">
			<path d="M204.874,70.105c0.259-0.348,0.658-0.151,0.98-0.017c0.477,0.193,0.977,0.319,1.458,0.501
				c0.354,0.137,0.702,0.291,1.07,0.388c-0.003-0.001-0.007-0.002-0.01-0.003c0.114,0.032,0.203,0.057,0.001,0.002
				c0.193,0.062,0.403,0.082,0.591,0.156c0.06-0.084,0.135-0.154,0.238-0.196c0.457-0.214,0.976,0.299,0.767,0.759
				c-0.156,0.351-0.318,0.702-0.425,1.072c-0.092,0.552-0.277,1.423-1.027,1.152c-0.148-0.062-0.248-0.181-0.327-0.314
				c0.013,0.048-0.294-0.325-0.377-0.395c-0.331-0.354-0.976-0.916-1.611-1.476c-0.332-0.278-0.674-0.545-1.03-0.792
				c-0.028-0.018-0.057-0.034-0.086-0.051c-0.024-0.014-0.061-0.035-0.098-0.058C204.755,70.672,204.701,70.332,204.874,70.105z"/>
		</g>
	</g>
	<g>
		<path style="fill:#FFFFFF;" d="M214.001,109.889c-0.696-1.157-2.272-1.414-3.356-0.609l-1.107,0.822
			c-0.615,0.456-1.287,1.015-1.324,1.78c-0.03,0.624,0.38,1.173,0.769,1.662c0.576,0.723,1.253,1.503,2.173,1.599
			c0.63,0.065,1.24-0.212,1.813-0.482c0.365-0.172,0.74-0.351,1.016-0.646c0.383-0.408,0.527-0.987,0.57-1.545
			c0.068-0.882-0.091-1.795-0.541-2.557C214.01,109.904,214.005,109.896,214.001,109.889z"/>
		<path d="M211.348,115.633c-0.079,0-0.16-0.004-0.241-0.012c-1.181-0.123-2.006-1.159-2.5-1.778
			c-0.365-0.457-0.915-1.147-0.874-1.986c0.051-1.054,1.005-1.763,1.518-2.143l1.107-0.822c0.645-0.479,1.466-0.664,2.254-0.508
			c0.766,0.152,1.406,0.597,1.802,1.255c0.003,0.005,0.007,0.012,0.008,0.014c0.484,0.82,0.694,1.801,0.614,2.851
			c-0.061,0.79-0.296,1.408-0.699,1.838c-0.343,0.366-0.779,0.571-1.162,0.752C212.662,115.338,212.035,115.633,211.348,115.633z
			 M212.059,109.295c-0.403,0-0.799,0.129-1.127,0.372l-1.107,0.822c-0.532,0.395-1.102,0.863-1.129,1.416
			c-0.021,0.439,0.302,0.883,0.665,1.338c0.54,0.678,1.127,1.346,1.845,1.42c0.477,0.05,0.967-0.16,1.557-0.439
			c0.321-0.151,0.653-0.308,0.871-0.54c0.249-0.266,0.397-0.687,0.441-1.252c0.064-0.839-0.105-1.647-0.475-2.274l0.401-0.268
			l-0.413,0.248c-0.254-0.422-0.667-0.708-1.163-0.807C212.303,109.307,212.181,109.295,212.059,109.295z"/>
	</g>
	<g>
		<path d="M205.565,107.859c-0.156,0-0.309-0.076-0.402-0.216c-0.893-1.347-1.466-2.908-1.658-4.512
			c-0.032-0.264,0.157-0.504,0.422-0.536c0.263-0.03,0.505,0.157,0.536,0.422c0.174,1.456,0.693,2.871,1.504,4.093
			c0.147,0.222,0.087,0.521-0.135,0.668C205.749,107.833,205.656,107.859,205.565,107.859z"/>
	</g>
	<g>
		<path d="M203.514,109.338c-0.134,0-0.267-0.055-0.362-0.163l-1.234-1.403c-0.176-0.2-0.156-0.505,0.044-0.681
			c0.2-0.176,0.505-0.156,0.68,0.044l1.234,1.403c0.176,0.2,0.157,0.505-0.043,0.681
			C203.741,109.299,203.627,109.338,203.514,109.338z"/>
	</g>
	<g>
		<path d="M195.316,162.039c-0.022,0-0.044-0.001-0.066-0.004c-3.017-0.411-5.966-1.226-8.767-2.423
			c-0.245-0.105-0.359-0.388-0.254-0.633c0.105-0.245,0.387-0.359,0.633-0.254c2.72,1.163,5.586,1.955,8.517,2.354
			c0.264,0.036,0.449,0.279,0.413,0.543C195.76,161.864,195.553,162.039,195.316,162.039z"/>
	</g>
	<g style="opacity:0.1294;">
		<path d="M241.331,144.535c-0.552,0.013-0.987,0.423-1.45,0.677c-0.728,0.486-1.464,0.963-2.184,1.462
			c-1.665,1.225-3.392,2.384-4.881,3.827c-0.996,1.046,0.501,2.543,1.551,1.551c1.915-1.673,2.81-2.339,4.755-3.712
			c0.682-0.426,1.352-0.871,2.037-1.291c0.338-0.253,0.802-0.363,1.051-0.714C242.809,145.656,242.222,144.509,241.331,144.535z"/>
	</g>
	<g>
		<path d="M187.449,236.526c-0.005,0-0.009,0-0.014-0.001c-0.088-0.008-0.154-0.086-0.146-0.174l1.148-13.113
			c0.008-0.088,0.085-0.151,0.174-0.146c0.088,0.008,0.154,0.086,0.146,0.174l-1.148,13.113
			C187.601,236.463,187.531,236.526,187.449,236.526z"/>
	</g>
	<g>
		<path d="M192.651,238.338c-0.002,0-0.003,0-0.005,0c-0.089-0.003-0.158-0.077-0.155-0.166l0.547-16.363
			c0.003-0.087,0.074-0.155,0.161-0.155c0.001,0,0.003,0,0.005,0c0.089,0.003,0.158,0.077,0.155,0.166l-0.547,16.362
			C192.809,238.27,192.738,238.338,192.651,238.338z"/>
	</g>
	<g>
		<path d="M242.531,197.301c-0.002,0-0.004,0-0.007,0c-0.089-0.004-0.158-0.079-0.154-0.167l0.3-7.208
			c0.004-0.089,0.075-0.154,0.167-0.154c0.089,0.004,0.158,0.079,0.154,0.167l-0.299,7.208
			C242.688,197.234,242.617,197.301,242.531,197.301z"/>
	</g>
	<g>
		<path d="M247.165,203.223c0,0-0.001,0-0.001,0c-0.089,0-0.16-0.073-0.16-0.162c0.034-6.511,0.225-13.108,0.57-19.608
			c0.005-0.089,0.083-0.159,0.169-0.152c0.089,0.005,0.157,0.08,0.152,0.169c-0.344,6.494-0.536,13.086-0.569,19.593
			C247.326,203.151,247.254,203.223,247.165,203.223z"/>
	</g>
	<g>
		<path d="M221.165,230.435c-0.015,0-0.03-0.002-0.045-0.006c-0.085-0.025-0.134-0.114-0.11-0.199
			c0.412-1.412,0.984-2.779,1.701-4.063c0.043-0.078,0.142-0.105,0.219-0.062c0.077,0.043,0.105,0.141,0.062,0.219
			c-0.705,1.263-1.268,2.607-1.673,3.996C221.299,230.389,221.235,230.435,221.165,230.435z"/>
	</g>
	<g>
		<path d="M222.391,231.776c-0.011,0-0.022-0.001-0.033-0.003c-0.087-0.018-0.143-0.103-0.125-0.19
			c0.237-1.15,0.62-2.268,1.14-3.322c0.039-0.079,0.135-0.112,0.215-0.073c0.08,0.039,0.112,0.136,0.073,0.215
			c-0.507,1.03-0.882,2.122-1.113,3.245C222.533,231.724,222.465,231.776,222.391,231.776z"/>
	</g>
	<g>
		<path d="M223.866,232.934c-0.001,0-0.002,0-0.003,0c-0.089-0.002-0.16-0.075-0.158-0.163c0.02-1.213,0.306-2.432,0.826-3.528
			c0.038-0.08,0.134-0.114,0.214-0.076c0.08,0.038,0.114,0.134,0.076,0.214c-0.501,1.054-0.775,2.228-0.795,3.395
			C224.025,232.863,223.953,232.934,223.866,232.934z"/>
	</g>
	<g>
		<path d="M225.497,233.822c-0.001,0-0.002,0-0.003,0c-0.089-0.002-0.16-0.075-0.158-0.164c0.019-1.093,0.179-2.183,0.473-3.238
			c0.024-0.085,0.112-0.135,0.198-0.111c0.085,0.024,0.135,0.112,0.111,0.198c-0.287,1.029-0.442,2.091-0.461,3.157
			C225.656,233.752,225.584,233.822,225.497,233.822z"/>
	</g>
	<g>
		<path d="M227.288,235.022c-0.089,0-0.16-0.071-0.161-0.16c-0.006-1.133,0.069-2.277,0.224-3.401
			c0.012-0.088,0.095-0.148,0.181-0.137c0.088,0.012,0.149,0.093,0.137,0.181c-0.152,1.108-0.227,2.237-0.221,3.355
			C227.449,234.949,227.378,235.022,227.288,235.022C227.288,235.022,227.288,235.022,227.288,235.022z"/>
	</g>
	<g>
		<path d="M229.001,235.779c-0.085,0-0.156-0.067-0.16-0.153c-0.044-0.924-0.02-1.859,0.07-2.779
			c0.008-0.089,0.089-0.149,0.176-0.144c0.089,0.009,0.153,0.088,0.144,0.176c-0.089,0.904-0.112,1.824-0.069,2.733
			c0.004,0.089-0.064,0.164-0.153,0.168C229.006,235.779,229.003,235.779,229.001,235.779z"/>
	</g>
	<g>
		<path d="M230.669,237.072c-0.079,0-0.148-0.059-0.159-0.139c-0.103-0.764-0.115-1.541-0.038-2.308
			c0.009-0.089,0.092-0.155,0.176-0.144c0.089,0.009,0.153,0.088,0.144,0.176c-0.075,0.743-0.063,1.494,0.037,2.234
			c0.012,0.088-0.05,0.169-0.138,0.18C230.683,237.072,230.676,237.072,230.669,237.072z"/>
	</g>
	<g>
		<path d="M170.322,129.011c-0.046,0-0.092-0.02-0.124-0.059c-0.615-0.747-1.193-1.537-1.719-2.348
			c-0.048-0.074-0.027-0.174,0.047-0.222c0.074-0.048,0.174-0.028,0.222,0.047c0.52,0.8,1.091,1.58,1.698,2.318
			c0.056,0.069,0.047,0.17-0.022,0.226C170.394,128.999,170.358,129.011,170.322,129.011z"/>
	</g>
	<g>
		<path d="M175.007,132.317c-0.047,0-0.094-0.021-0.126-0.061c-1.656-2.08-3.269-4.237-4.796-6.412
			c-0.051-0.073-0.034-0.173,0.039-0.224c0.072-0.051,0.173-0.033,0.224,0.039c1.523,2.169,3.133,4.321,4.785,6.396
			c0.055,0.07,0.044,0.171-0.026,0.226C175.078,132.306,175.043,132.317,175.007,132.317z"/>
	</g>
	<g>
		<path d="M178.561,133.348c-0.047,0-0.093-0.02-0.125-0.059c-2.163-2.651-4.249-5.419-6.199-8.226
			c-0.051-0.073-0.033-0.173,0.04-0.224c0.072-0.051,0.173-0.033,0.223,0.04c1.946,2.801,4.026,5.562,6.185,8.206
			c0.056,0.069,0.046,0.17-0.023,0.226C178.633,133.336,178.597,133.348,178.561,133.348z"/>
	</g>
	<g>
		<path d="M181.136,133.881c-0.046,0-0.091-0.019-0.123-0.057c-2.384-2.817-4.587-5.83-6.548-8.957
			c-0.047-0.075-0.024-0.174,0.051-0.222c0.076-0.047,0.175-0.024,0.222,0.051c1.952,3.114,4.146,6.115,6.521,8.92
			c0.057,0.068,0.049,0.169-0.019,0.227C181.21,133.868,181.173,133.881,181.136,133.881z"/>
	</g>
	<g>
		<path d="M183.574,133.641c-0.046,0-0.091-0.019-0.122-0.057c-2.421-2.845-4.714-5.853-6.815-8.94
			c-0.05-0.073-0.031-0.173,0.042-0.223c0.073-0.049,0.173-0.031,0.223,0.043c2.095,3.078,4.381,6.076,6.794,8.912
			c0.057,0.068,0.049,0.169-0.018,0.227C183.648,133.628,183.611,133.641,183.574,133.641z"/>
	</g>
	<g>
		<path d="M186.021,133.388c-0.043,0-0.086-0.017-0.118-0.052c-2.495-2.701-4.804-5.615-6.864-8.661
			c-0.05-0.074-0.031-0.174,0.043-0.223c0.074-0.05,0.173-0.031,0.223,0.043c2.051,3.033,4.35,5.934,6.834,8.623
			c0.06,0.065,0.056,0.167-0.009,0.227C186.099,133.374,186.06,133.388,186.021,133.388z"/>
	</g>
	<g>
		<path d="M188.07,132.902c-0.043,0-0.086-0.017-0.118-0.051c-2.224-2.396-4.346-4.94-6.309-7.559
			c-0.053-0.071-0.039-0.172,0.032-0.225c0.071-0.053,0.171-0.039,0.225,0.032c1.955,2.611,4.071,5.145,6.287,7.533
			c0.061,0.065,0.057,0.167-0.008,0.227C188.148,132.887,188.109,132.902,188.07,132.902z"/>
	</g>
	<g>
		<path d="M190.203,132.313c-0.042,0-0.084-0.016-0.116-0.049c-2.031-2.11-4.022-4.315-5.915-6.552
			c-0.057-0.068-0.049-0.169,0.019-0.226c0.068-0.057,0.17-0.049,0.227,0.019c1.889,2.232,3.874,4.431,5.901,6.536
			c0.061,0.064,0.06,0.166-0.004,0.227C190.283,132.298,190.243,132.313,190.203,132.313z"/>
	</g>
	<g>
		<path d="M192.274,131.519c-0.04,0-0.079-0.015-0.111-0.044c-1.566-1.482-3.097-3.041-4.551-4.634
			c-0.06-0.066-0.055-0.167,0.01-0.227c0.066-0.06,0.167-0.055,0.227,0.01c1.448,1.587,2.974,3.141,4.534,4.617
			c0.064,0.061,0.067,0.163,0.006,0.227C192.359,131.502,192.317,131.519,192.274,131.519z"/>
	</g>
	<g>
		<path d="M194.265,130.819c-0.039,0-0.077-0.014-0.108-0.041c-1.266-1.145-2.501-2.355-3.67-3.599
			c-0.061-0.065-0.058-0.166,0.007-0.227c0.065-0.061,0.166-0.058,0.227,0.007c1.163,1.237,2.392,2.442,3.651,3.58
			c0.066,0.06,0.071,0.161,0.012,0.227C194.353,130.801,194.309,130.819,194.265,130.819z"/>
	</g>
	<g>
		<path d="M195.855,129.785c-0.04,0-0.08-0.015-0.111-0.044l-2.96-2.826c-0.064-0.061-0.067-0.163-0.005-0.227
			c0.061-0.064,0.163-0.066,0.227-0.005l2.961,2.826c0.064,0.061,0.067,0.163,0.005,0.227
			C195.94,129.768,195.898,129.785,195.855,129.785z"/>
	</g>
	<g>
		<path d="M197.889,129.066c-0.04,0-0.079-0.015-0.111-0.044l-2.742-2.591c-0.064-0.061-0.067-0.163-0.006-0.227
			c0.061-0.064,0.163-0.067,0.227-0.007l2.742,2.591c0.064,0.061,0.067,0.163,0.006,0.227
			C197.974,129.049,197.932,129.066,197.889,129.066z"/>
	</g>
	<g>
		<path d="M199.302,128.088c-0.035,0-0.07-0.011-0.1-0.035c-0.79-0.626-1.54-1.316-2.229-2.05c-0.061-0.065-0.058-0.166,0.007-0.227
			c0.065-0.061,0.166-0.058,0.227,0.007c0.679,0.723,1.417,1.402,2.194,2.019c0.07,0.055,0.081,0.156,0.026,0.226
			C199.396,128.067,199.35,128.088,199.302,128.088z"/>
	</g>
	<g>
		<path d="M200.668,127.099c-0.04,0-0.08-0.015-0.111-0.045l-1.909-1.828c-0.064-0.061-0.066-0.163-0.005-0.227
			c0.062-0.064,0.163-0.066,0.227-0.005l1.909,1.828c0.064,0.062,0.066,0.163,0.005,0.227
			C200.752,127.082,200.71,127.099,200.668,127.099z"/>
	</g>
	<g>
		<path d="M202.192,126.116c-0.039,0-0.077-0.014-0.108-0.042c-0.621-0.563-1.281-1.096-1.963-1.583
			c-0.072-0.052-0.089-0.152-0.037-0.224c0.051-0.072,0.152-0.089,0.224-0.037c0.692,0.495,1.363,1.035,1.992,1.607
			c0.066,0.06,0.071,0.161,0.011,0.227C202.279,126.098,202.236,126.116,202.192,126.116z"/>
	</g>
	<g>
		<path d="M203.54,124.939c-0.032,0-0.063-0.009-0.091-0.028c-0.638-0.44-1.25-0.931-1.817-1.458
			c-0.065-0.061-0.068-0.162-0.008-0.227c0.061-0.065,0.162-0.068,0.227-0.008c0.556,0.517,1.155,0.998,1.781,1.429
			c0.073,0.05,0.091,0.151,0.041,0.223C203.641,124.915,203.591,124.939,203.54,124.939z"/>
	</g>
	<g>
		<path d="M204.914,123.519c-0.033,0-0.067-0.01-0.096-0.032l-1.596-1.184c-0.071-0.053-0.086-0.153-0.033-0.225
			c0.053-0.071,0.154-0.086,0.225-0.033l1.596,1.184c0.071,0.053,0.086,0.154,0.033,0.225
			C205.012,123.496,204.963,123.519,204.914,123.519z"/>
	</g>
	<g>
		<path d="M206.134,122.036c-0.035,0-0.069-0.011-0.099-0.034l-1.085-0.845c-0.07-0.054-0.083-0.155-0.028-0.226
			c0.055-0.07,0.156-0.083,0.225-0.028l1.086,0.845c0.07,0.054,0.083,0.156,0.028,0.226
			C206.229,122.014,206.181,122.036,206.134,122.036z"/>
	</g>
	<g>
		<path d="M207.456,121.023c-0.037,0-0.074-0.013-0.105-0.039l-1.132-0.976c-0.067-0.058-0.075-0.159-0.017-0.227
			c0.058-0.067,0.16-0.074,0.227-0.017l1.132,0.976c0.067,0.058,0.075,0.16,0.017,0.227
			C207.546,121.004,207.501,121.023,207.456,121.023z"/>
	</g>
	<g>
		<path d="M208.488,119.683c-0.029,0-0.057-0.007-0.083-0.023c-0.385-0.234-0.767-0.485-1.135-0.747
			c-0.072-0.051-0.089-0.152-0.038-0.224c0.052-0.073,0.152-0.089,0.224-0.038c0.363,0.257,0.739,0.504,1.117,0.735
			c0.076,0.046,0.1,0.145,0.054,0.221C208.595,119.656,208.542,119.683,208.488,119.683z"/>
	</g>
	<g>
		<path d="M209.562,118.358c-0.029,0-0.059-0.008-0.086-0.025l-1.184-0.749c-0.075-0.047-0.097-0.147-0.05-0.222
			c0.048-0.075,0.148-0.097,0.222-0.05l1.184,0.749c0.075,0.047,0.097,0.147,0.05,0.222
			C209.667,118.332,209.615,118.358,209.562,118.358z"/>
	</g>
	<g>
		<path d="M210.507,116.929c-0.025,0-0.051-0.006-0.074-0.018l-1.056-0.55c-0.078-0.041-0.109-0.138-0.068-0.217
			c0.041-0.079,0.139-0.109,0.217-0.068l1.056,0.55c0.078,0.041,0.109,0.138,0.068,0.217
			C210.621,116.897,210.565,116.929,210.507,116.929z"/>
	</g>
	<g>
		<path d="M212.199,113.887c-0.027,0-0.055-0.007-0.08-0.021c-0.793-0.455-1.556-0.978-2.267-1.552
			c-0.069-0.056-0.08-0.157-0.024-0.226s0.157-0.08,0.226-0.024c0.697,0.564,1.446,1.077,2.225,1.524
			c0.077,0.044,0.104,0.142,0.059,0.219C212.308,113.859,212.254,113.887,212.199,113.887z"/>
	</g>
	<g>
		<path d="M213.319,112.766c-0.023,0-0.047-0.005-0.069-0.016c-0.568-0.269-1.126-0.574-1.658-0.906
			c-0.075-0.047-0.098-0.146-0.051-0.221c0.047-0.075,0.147-0.098,0.221-0.051c0.521,0.326,1.068,0.625,1.625,0.888
			c0.08,0.038,0.115,0.134,0.077,0.214C213.437,112.732,213.379,112.766,213.319,112.766z"/>
	</g>
	<g>
		<path d="M267.348,138.411c-0.011,0-0.022-0.001-0.034-0.003c-0.087-0.018-0.142-0.104-0.124-0.191l0.767-3.622
			c0.018-0.087,0.106-0.142,0.191-0.124c0.087,0.018,0.142,0.104,0.124,0.191l-0.767,3.622
			C267.489,138.359,267.423,138.411,267.348,138.411z"/>
	</g>
	<g>
		<path d="M269.378,142.899c-0.007,0-0.013,0-0.02-0.001c-0.088-0.011-0.15-0.091-0.139-0.18c0.386-3.067,0.947-6.147,1.666-9.154
			c0.02-0.086,0.106-0.14,0.194-0.119c0.086,0.021,0.14,0.107,0.119,0.194c-0.716,2.996-1.275,6.065-1.659,9.12
			C269.527,142.84,269.458,142.899,269.378,142.899z"/>
	</g>
	<g>
		<path d="M271.456,146.842c-0.006,0-0.012,0-0.018-0.001c-0.088-0.01-0.152-0.09-0.142-0.178c0.535-4.694,1.197-9.434,1.969-14.088
			c0.014-0.088,0.095-0.147,0.185-0.132c0.088,0.014,0.147,0.097,0.132,0.185c-0.771,4.648-1.433,9.383-1.967,14.072
			C271.607,146.781,271.537,146.842,271.456,146.842z"/>
	</g>
	<g>
		<path d="M273.717,151.13c-0.005,0-0.009,0-0.014-0.001c-0.088-0.008-0.154-0.085-0.146-0.174
			c0.483-5.64,1.074-11.352,1.755-16.977c0.011-0.088,0.092-0.149,0.179-0.14c0.088,0.011,0.151,0.091,0.14,0.179
			c-0.681,5.621-1.271,11.329-1.754,16.965C273.869,151.067,273.799,151.13,273.717,151.13z"/>
	</g>
	<g>
		<path d="M275.908,154.139c-0.005,0-0.011,0-0.016-0.001c-0.088-0.009-0.153-0.087-0.144-0.176l1.421-14.508
			c0.009-0.089,0.091-0.152,0.176-0.144c0.088,0.009,0.153,0.087,0.144,0.176l-1.421,14.508
			C276.06,154.077,275.99,154.139,275.908,154.139z"/>
	</g>
	<g>
		<path d="M277.91,158.352c-0.006,0-0.012,0-0.018-0.001c-0.088-0.01-0.152-0.089-0.142-0.177l1.594-14.439
			c0.01-0.088,0.088-0.152,0.177-0.142c0.088,0.01,0.152,0.089,0.142,0.177l-1.594,14.44
			C278.06,158.291,277.991,158.352,277.91,158.352z"/>
	</g>
	<g>
		<path d="M280.236,161.994c-0.007,0-0.014,0-0.02-0.001c-0.088-0.011-0.151-0.091-0.14-0.179c0.579-4.677,1.051-9.429,1.402-14.124
			c0.007-0.089,0.086-0.154,0.172-0.148c0.089,0.007,0.155,0.084,0.148,0.172c-0.352,4.7-0.824,9.457-1.404,14.139
			C280.385,161.934,280.316,161.994,280.236,161.994z"/>
	</g>
	<g>
		<path d="M282.754,165.704c-0.004,0-0.008,0-0.012,0c-0.089-0.007-0.155-0.084-0.148-0.172l1.01-13.674
			c0.007-0.089,0.082-0.156,0.172-0.148c0.089,0.007,0.155,0.084,0.148,0.172l-1.01,13.674
			C282.908,165.64,282.837,165.704,282.754,165.704z"/>
	</g>
	<g>
		<path d="M285.329,169.258c-0.001,0-0.002,0-0.003,0c-0.089-0.002-0.159-0.075-0.157-0.164c0.097-4.523,0.313-9.1,0.644-13.604
			c0.007-0.089,0.089-0.157,0.172-0.148c0.089,0.007,0.155,0.083,0.149,0.172c-0.33,4.499-0.547,9.07-0.643,13.587
			C285.488,169.189,285.416,169.258,285.329,169.258z"/>
	</g>
	<g>
		<path d="M287.705,172.392c-0.003,0-0.006,0-0.008,0c-0.089-0.005-0.157-0.08-0.152-0.169l0.688-12.99
			c0.004-0.089,0.082-0.154,0.169-0.152c0.089,0.005,0.157,0.08,0.152,0.169l-0.688,12.99
			C287.861,172.326,287.79,172.392,287.705,172.392z"/>
	</g>
	<g>
		<path d="M289.74,174.809c-0.004,0-0.009,0-0.013-0.001c-0.089-0.007-0.154-0.085-0.147-0.173l0.966-12.106
			c0.007-0.089,0.085-0.153,0.173-0.148c0.089,0.007,0.154,0.085,0.147,0.173l-0.966,12.106
			C289.893,174.745,289.822,174.809,289.74,174.809z"/>
	</g>
	<g>
		<path d="M292.145,177.794c-0.004,0-0.008,0-0.013,0c-0.089-0.007-0.155-0.084-0.148-0.173c0.3-3.963,0.516-7.988,0.641-11.963
			c0.003-0.089,0.076-0.16,0.166-0.156c0.089,0.003,0.158,0.077,0.156,0.166c-0.126,3.98-0.341,8.01-0.642,11.977
			C292.299,177.73,292.228,177.794,292.145,177.794z"/>
	</g>
	<g>
		<path d="M294.522,180.443c-0.004,0-0.008,0-0.011,0c-0.088-0.006-0.155-0.083-0.149-0.171l0.82-11.913
			c0.006-0.089,0.083-0.158,0.171-0.149c0.089,0.006,0.155,0.083,0.15,0.171l-0.82,11.913
			C294.676,180.378,294.606,180.443,294.522,180.443z"/>
	</g>
	<g>
		<path d="M296.662,182.659c-0.008,0-0.015-0.001-0.023-0.002c-0.088-0.012-0.149-0.094-0.137-0.182
			c0.513-3.598,0.883-7.262,1.102-10.891c0.005-0.089,0.07-0.161,0.17-0.151c0.089,0.005,0.156,0.081,0.151,0.17
			c-0.219,3.638-0.59,7.311-1.104,10.917C296.809,182.601,296.74,182.659,296.662,182.659z"/>
	</g>
	<g>
		<path d="M299.581,186.113c-0.003,0-0.005,0-0.008,0c-0.089-0.004-0.157-0.08-0.152-0.168l0.562-11.466
			c0.004-0.089,0.079-0.164,0.168-0.153c0.089,0.004,0.157,0.08,0.153,0.168l-0.562,11.466
			C299.737,186.047,299.666,186.113,299.581,186.113z"/>
	</g>
	<g>
		<path d="M302.589,188.543c-0.089,0-0.16-0.072-0.161-0.16l-0.036-11.279c0-0.089,0.072-0.161,0.16-0.161c0,0,0,0,0.001,0
			c0.089,0,0.16,0.072,0.161,0.16l0.036,11.279C302.75,188.47,302.678,188.542,302.589,188.543
			C302.589,188.543,302.589,188.543,302.589,188.543z"/>
	</g>
	<g>
		<path d="M305.267,190.244c-0.087,0-0.159-0.07-0.161-0.157l-0.232-10.263c-0.002-0.089,0.069-0.162,0.157-0.165
			c0.093,0.008,0.163,0.068,0.165,0.157l0.232,10.263c0.002,0.089-0.069,0.162-0.157,0.164
			C305.27,190.244,305.268,190.244,305.267,190.244z"/>
	</g>
	<g>
		<path d="M307.768,188.136c-0.081,0-0.151-0.061-0.159-0.144c-0.197-1.839-0.231-3.708-0.102-5.555
			c0.006-0.089,0.078-0.156,0.172-0.149c0.089,0.006,0.155,0.083,0.149,0.172c-0.128,1.828-0.093,3.678,0.101,5.498
			c0.009,0.088-0.054,0.167-0.143,0.177C307.78,188.136,307.774,188.136,307.768,188.136z"/>
	</g>
	<g>
		<path d="M145.471,235.104c-0.015,0-0.03-0.002-0.045-0.007c-0.085-0.025-0.134-0.114-0.109-0.199l0.937-3.202
			c0.025-0.085,0.113-0.134,0.199-0.109c0.085,0.025,0.134,0.114,0.109,0.199l-0.937,3.202
			C145.604,235.058,145.54,235.104,145.471,235.104z"/>
	</g>
	<g>
		<path d="M146.843,238.932c-0.01,0-0.02-0.001-0.031-0.003c-0.087-0.017-0.144-0.101-0.128-0.188
			c0.542-2.834,1.21-5.677,1.987-8.45c0.024-0.085,0.112-0.136,0.198-0.111c0.085,0.024,0.135,0.113,0.111,0.198
			c-0.774,2.764-1.441,5.598-1.98,8.423C146.986,238.878,146.919,238.932,146.843,238.932z"/>
	</g>
	<g>
		<path d="M148.53,243.64c-0.007,0-0.014,0-0.021-0.001c-0.088-0.012-0.15-0.092-0.138-0.18c0.412-3.134,0.963-6.289,1.637-9.376
			c0.019-0.087,0.104-0.141,0.191-0.123c0.087,0.019,0.142,0.105,0.123,0.191c-0.673,3.079-1.222,6.225-1.632,9.35
			C148.678,243.581,148.609,243.64,148.53,243.64z"/>
	</g>
	<g>
		<path d="M150.461,247.654c-0.006,0-0.012,0-0.017-0.001c-0.088-0.009-0.152-0.089-0.143-0.177
			c0.329-3.086,0.735-6.203,1.208-9.263c0.014-0.088,0.097-0.146,0.183-0.134c0.088,0.014,0.148,0.096,0.134,0.183
			c-0.472,3.056-0.878,6.168-1.206,9.248C150.612,247.592,150.542,247.654,150.461,247.654z"/>
	</g>
	<g>
		<path d="M152.317,251.751c-0.005,0-0.011,0-0.016-0.001c-0.088-0.009-0.153-0.088-0.144-0.176l0.964-9.837
			c0.009-0.088,0.089-0.15,0.176-0.144c0.088,0.009,0.153,0.088,0.144,0.176l-0.964,9.837
			C152.469,251.689,152.399,251.751,152.317,251.751z"/>
	</g>
	<g>
		<path d="M154.453,255.383c-0.006,0-0.011,0-0.017-0.001c-0.088-0.009-0.152-0.088-0.143-0.177l0.988-9.366
			c0.009-0.089,0.085-0.154,0.177-0.143c0.088,0.009,0.152,0.088,0.143,0.177l-0.988,9.366
			C154.604,255.322,154.534,255.383,154.453,255.383z"/>
	</g>
	<g>
		<path d="M157.045,258.874c-0.004,0-0.008,0-0.013,0c-0.088-0.007-0.155-0.084-0.148-0.173l0.677-8.896
			c0.007-0.089,0.095-0.154,0.173-0.148c0.089,0.007,0.155,0.084,0.148,0.173l-0.677,8.896
			C157.198,258.81,157.128,258.874,157.045,258.874z"/>
	</g>
	<g>
		<path d="M159.754,262.264c-0.001,0-0.001,0-0.001,0c-0.089-0.001-0.16-0.073-0.159-0.162c0.029-2.914,0.133-5.869,0.309-8.784
			c0.005-0.089,0.073-0.162,0.17-0.151c0.089,0.005,0.156,0.082,0.151,0.17c-0.176,2.909-0.279,5.859-0.308,8.768
			C159.914,262.193,159.842,262.264,159.754,262.264z"/>
	</g>
	<g>
		<path d="M162.749,265.026c-0.085,0-0.157-0.067-0.16-0.154c-0.128-2.797-0.183-5.635-0.165-8.435
			c0.001-0.089,0.072-0.16,0.161-0.16c0,0,0.001,0,0.001,0c0.089,0.001,0.16,0.073,0.16,0.162c-0.018,2.795,0.038,5.627,0.165,8.419
			c0.004,0.089-0.064,0.164-0.153,0.168C162.753,265.026,162.751,265.026,162.749,265.026z"/>
	</g>
	<g>
		<path d="M165.668,267.947c-0.081,0-0.151-0.061-0.16-0.143c-0.287-2.671-0.426-5.388-0.416-8.076c0-0.089,0.072-0.16,0.161-0.16
			c0.074,0.005,0.161,0.072,0.161,0.161c-0.011,2.676,0.129,5.381,0.414,8.04c0.009,0.089-0.054,0.168-0.143,0.177
			C165.68,267.947,165.674,267.947,165.668,267.947z"/>
	</g>
	<g>
		<path d="M168.697,270.159c-0.078,0-0.147-0.058-0.159-0.137c-0.347-2.389-0.613-4.824-0.793-7.238
			c-0.007-0.089,0.06-0.166,0.148-0.172c0.087-0.007,0.166,0.06,0.172,0.149c0.179,2.406,0.445,4.834,0.791,7.215
			c0.013,0.088-0.048,0.169-0.136,0.182C168.712,270.159,168.705,270.159,168.697,270.159z"/>
	</g>
	<g>
		<path d="M171.919,272.467c-0.074,0-0.14-0.051-0.157-0.126c-0.547-2.478-0.986-5.01-1.307-7.524
			c-0.011-0.088,0.051-0.169,0.139-0.18c0.086-0.013,0.169,0.051,0.18,0.139c0.319,2.505,0.757,5.027,1.301,7.495
			c0.019,0.087-0.036,0.172-0.122,0.191C171.941,272.466,171.93,272.467,171.919,272.467z"/>
	</g>
	<g>
		<path d="M174.899,274.067c-0.073,0-0.139-0.05-0.156-0.123c-0.539-2.265-1.023-4.575-1.439-6.868
			c-0.016-0.087,0.042-0.171,0.13-0.187c0.083-0.014,0.171,0.042,0.187,0.13c0.415,2.286,0.898,4.591,1.436,6.85
			c0.021,0.087-0.033,0.173-0.119,0.194C174.924,274.066,174.911,274.067,174.899,274.067z"/>
	</g>
	<g>
		<path d="M177.504,274.137c-0.073,0-0.139-0.05-0.157-0.125l-1.164-5.058c-0.02-0.087,0.034-0.173,0.12-0.193
			c0.089-0.02,0.173,0.034,0.193,0.12l1.164,5.058c0.02,0.087-0.034,0.173-0.121,0.193
			C177.528,274.136,177.516,274.137,177.504,274.137z"/>
	</g>
	<g>
		<path d="M180.072,273.338c-0.003,0-0.006,0-0.009,0c-0.042-0.003-0.149-0.025-0.197-0.178l-0.746-2.405
			c-0.026-0.085,0.021-0.175,0.106-0.201c0.086-0.027,0.175,0.021,0.201,0.106l0.719,2.32c0.024,0.008,0.046,0.022,0.063,0.039
			c0.053,0.055,0.066,0.14,0.032,0.213C180.214,273.289,180.137,273.338,180.072,273.338z"/>
	</g>
	<g style="opacity:0.1294;">
		<path d="M220.061,96.608c-0.559-0.504-1.382-0.495-2.076-0.693c-0.7-0.169-1.373-0.438-2.04-0.709
			c-0.366-0.155-0.721-0.335-1.063-0.537c-0.04-0.028-0.078-0.058-0.118-0.085c-0.18-0.125-0.387-0.26-0.607-0.298
			c-0.254-0.248-0.521-0.478-0.822-0.657c-0.896-0.424-1.723,0.814-1.01,1.498c1.476,1.425,2.926,2.88,4.393,4.316
			c0.687,0.621,1.211,1.503,2.062,1.904c0.421,0.123,0.926-0.113,1.071-0.532c0.136-0.341,0.094-0.736,0.107-1.098
			c0.025-0.835-0.002-0.587,0.213-1.553C220.349,97.652,220.493,97.037,220.061,96.608z"/>
	</g>
	<g style="opacity:0.1294;">
		<path d="M210.772,118.521c-1.157,1.376-2.275,2.783-3.531,4.077c-0.589,0.606-1.202,1.195-1.824,1.775
			c-0.089,0.098-0.179,0.197-0.274,0.298c-0.638,0.705-1.279,1.409-1.937,2.097c-0.11-0.065-0.235-0.106-0.37-0.115
			c-0.419,0.35-0.839,0.698-1.263,1.037c-0.196,0.157-0.43,0.113-0.585-0.012c-0.002,0.002-0.005,0.003-0.007,0.005
			c-2.803,2.177-6.033,3.832-9.244,5.275c-0.049,0.022-0.096,0.032-0.142,0.037c-0.102,0.068-0.205,0.136-0.305,0.208
			c-0.466,0.479-0.511,1.198-0.611,1.826c-0.129,0.76-0.16,1.8,0.694,2.133c0.692,0.33,1.284-0.242,1.853-0.563
			c1.053-0.586,2.055-1.252,3.033-1.956c2.79-1.758,4.493-2.71,6.843-4.968c1.804-1.71,3.463-3.571,5.079-5.458
			c0.418-0.512,0.799-1.05,1.163-1.601c0.328-0.709,0.646-1.427,0.895-2.167c0.213-0.63,0.374-1.276,0.546-1.918
			C210.781,118.526,210.776,118.524,210.772,118.521z"/>
	</g>
	<g style="opacity:0.1294;">
		<path d="M221.743,185.097c-0.596-0.566-1.488-0.428-2.241-0.544c-2.146-0.287-4.314-0.365-6.478-0.306
			c-0.936,0.029-1.871,0.03-2.807,0.034c-0.414,0.036-0.868-0.082-1.255,0.095c-0.14,0.053-0.254,0.129-0.346,0.218
			c-1.442-0.069-2.884-0.13-4.326-0.209c-3.013-0.213-6.22-0.441-8.494-0.881c-1.188-0.311-1.698,1.465-0.502,1.821
			c1.506,0.355,3.06,0.467,4.591,0.676c1.845,0.256,4.482,0.553,7.059,0.734c2.805,0.203,5.598,0.557,8.406,0.721
			c1.891,0.11,3.802,0.046,5.668-0.296C221.993,187.044,222.466,185.791,221.743,185.097z"/>
	</g>
	<g>
		<g style="opacity:0.1294;">
			<path d="M234.695,235.823c0.017,0.029,0.025,0.061,0.038,0.091C234.778,236.019,234.8,236.07,234.695,235.823z"/>
		</g>
		<g style="opacity:0.1294;">
			<path d="M236.692,198.34c-0.357-0.652-1.424-0.524-1.601,0.209c-0.996,3.507-1.24,7.174-1.943,10.743
				c-0.362,1.834-0.841,3.644-1.172,5.485c-0.425,2.596-0.912,5.186-1.71,7.698c-0.377,1.213-0.691,2.152-0.991,2.719
				c-0.032,0.059-0.072,0.113-0.109,0.169c-0.01,0.003-0.019,0.006-0.029,0.008c-0.265,0.016-0.53,0.001-0.795,0.006
				c-1.278-0.064-1.879,1.132-1.416,2.241c0.597,1.948,2.958,4.783,3.526,5.538c1.292,1.605,2.706,4.253,2.747,4.717
				c0.144,0.474,0.254,0.957,0.362,1.441c0.023,0.247,0.12,0.484,0.299,0.66c0.626,0.665,1.846,0.143,1.784-0.777
				c-0.153-1.062-0.447-2.099-0.845-3.097c-0.014-0.064-0.037-0.127-0.064-0.187c-0.016-0.037-0.034-0.08-0.051-0.12
				c-0.143-0.348-0.645-1.518-0.424-1c-0.469-1.075-1.084-2.595-1.709-4.276c-0.409-1.071-0.802-2.148-1.237-3.209
				c-0.146-0.279-0.231-0.616-0.383-0.899c1.16-2.241,1.705-4.77,2.289-7.212c0.549-3.051,1.099-6.098,1.79-9.122
				c0.413-2.388,0.919-6.716,1.003-7.165c0.153-1.094,0.342-2.184,0.595-3.259C236.701,199.221,236.954,198.759,236.692,198.34z"/>
		</g>
	</g>
	<g style="opacity:0.1294;">
		<path d="M319.179,175.809c-0.34-0.289-0.638-0.311-0.907-0.192c-0.268-0.055-0.558,0.005-0.787,0.243
			c-1.321,1.402-2.583,2.841-3.806,4.298c-0.747-0.163-1.166,0.505-1.579,1.133c-0.453,0.655-0.907,1.309-1.399,1.936
			c-0.216,0.28-0.436,0.556-0.66,0.83c-3.527,3.144-7.273,6.049-10.853,9.131c-6.548,5.308-13.122,10.618-19.489,15.561
			c-0.258,0.178-0.516,0.356-0.773,0.534c-4.291,2.912-8.678,5.679-12.956,8.613c-8.866,6.126-17.581,12.474-26.685,18.25
			c-4.072,2.629-8.207,5.157-12.301,7.751c-2.71,1.688-5.526,3.195-8.277,4.813c-4.16,2.526-8.248,5.168-12.467,7.598
			c-3.693,2.324-7.523,4.414-11.379,6.454c-3.44,1.972-6.843,4.01-10.197,6.126c-0.992,0.607-1.979,1.224-2.979,1.818
			c-0.416,0.263-0.94,0.448-1.151,0.905c-0.7,0.329-1.367,0.622-1.989,0.86c-0.573,0.144-0.947,0.796-0.775,1.364
			c0.154,0.571,0.792,0.944,1.364,0.774c0.29-0.109,0.578-0.222,0.865-0.339c-1.073,0.598-0.498,2.421,0.873,2.087
			c8.253-1.892,16.462-4.015,24.796-5.541c2.156-0.363,3.03-0.476,4.751-0.664c1.258-0.063,2.059-0.152,2.602-1.064
			c0.108-1.427,0.255-2.851,0.42-4.263c0.28-2.387,0.626-4.767,1.028-7.137c0.02-0.17,0.041-0.34,0.062-0.51
			c-0.169-0.18-0.391-0.299-0.63-0.342c0.941-0.597,1.874-1.208,2.792-1.843c0.642-0.517,1.479-0.854,1.775-1.397
			c1.65-0.848,3.302-1.69,4.963-2.516c2.399-1.176,4.636-2.64,6.92-4.019c4.361-2.542,8.487-5.444,12.64-8.307
			c3.583-2.472,7.247-4.823,10.891-7.204c3.348-2.24,6.96-4.049,10.315-6.277c3.274-2.202,6.503-4.469,9.795-6.646
			c2.75-1.875,5.59-3.619,8.299-5.555c0.931-0.666,1.82-1.384,2.693-2.123c1.43-0.973,2.826-1.997,4.226-3.012
			c1.885-1.373,3.775-2.743,5.539-4.27c4.362-3.764,8.677-7.614,12.48-11.954c0.299-0.39,0.719-0.712,0.938-1.152
			c0.111-0.219,0.103-0.469,0.016-0.691c0.914-1.161,1.81-2.309,2.729-3.477c0.353-0.412,0.698-0.831,1.038-1.254
			c1.278-1.196,2.517-2.434,3.684-3.742c1.167-1.279,2.257-2.625,3.294-4.011c0.073-0.097,0.251-0.335,0.293-0.394
			c0.136-0.158,0.214-0.357,0.214-0.566C319.439,176.193,319.337,175.973,319.179,175.809z M183.406,273.431
			c-1.043,0.25-2.087,0.493-3.134,0.724c1.013-0.424,2.005-0.893,2.99-1.38c0.061,0.166,0.164,0.316,0.297,0.432
			C183.496,273.276,183.446,273.351,183.406,273.431z M210.755,258.862c-0.645,0.442-3.878,2.729-5.481,3.65
			c-2.209,1.229-4.442,2.339-6.696,3.416c1.783-0.999,3.548-2.027,5.282-3.111c2.47-1.471,4.971-2.892,7.435-4.373
			C211.124,258.583,210.946,258.723,210.755,258.862z"/>
	</g>
	<g>
		<g style="opacity:0.1294;">
			<path d="M195.138,240.781c-0.022,0.01-0.044,0.021-0.067,0.03C195.401,240.676,195.313,240.708,195.138,240.781z"/>
		</g>
		<g style="opacity:0.1294;">
			<path d="M201.597,227.41c-0.382,0.102-0.668,0.476-0.664,0.872c0.013,0.257,0.033,0.515,0.009,0.772
				c-0.004,0.057-0.011,0.113-0.018,0.17c-0.179,1.307-0.857,3.59-1.064,3.899c-2.826,5.764-7.865,7.103-13.661,5.557
				c-0.531-0.146-1.093-0.506-1.624-0.16c-0.707,0.396-0.716,1.5,0,1.894c2.034,0.872,4.301,1.137,6.498,1.188
				c1.322-0.033,2.65-0.246,3.881-0.741c0.063-0.028,0.128-0.056,0.184-0.08c2.541-1.099,4.558-3.192,5.968-5.54
				c0.887-1.418,1.254-3.079,1.508-4.712C202.724,229.518,203.293,227.169,201.597,227.41z"/>
		</g>
	</g>
	<g style="opacity:0.1294;">
		<path d="M259.874,191.776c-0.056-1.427-2.137-1.324-2.068,0.109c-0.013,0.655-0.245,1.846-0.644,3.141
			c-0.01,0.029-0.022,0.058-0.033,0.086c-0.289,0.64-0.612,1.263-0.934,1.886c-1.19,2.243-1.855,2.961-3.946,4.659
			c-0.21,0.157-0.455,0.385-1.327,0.913c-1.013,0.592-2.611,1.393-2.753,1.415c0.745-0.293-0.867,0.316-1.201,0.374
			c-0.975,0.284-2.434,0.564-2.503,0.525c-0.875,0.057-1.751,0.013-2.619-0.103c-0.444-0.06-0.913-0.228-1.321,0.032
			c-0.801,0.433-0.636,1.74,0.255,1.953c1.491,0.253,3.014,0.476,4.529,0.387c0.035-0.003,0.069-0.008,0.104-0.012
			c0.148,0.289,0.43,0.506,0.82,0.497c1.655,0.046,3.349-0.167,4.899-0.767c1.012-0.427,1.919-1.066,2.831-1.671
			c1.255-0.787,2.345-1.783,3.146-3.037c0.276-0.484,0.855-0.941,0.697-1.551c-0.055-0.226-0.2-0.392-0.383-0.493
			c0.846-1.286,1.493-2.707,1.947-4.176c0.161-0.525,0.233-1.072,0.303-1.615c-0.048,0.366-0.035,0.266,0.008-0.034
			C259.789,193.461,259.926,192.62,259.874,191.776z"/>
	</g>
	<g style="opacity:0.1294;">
		<path d="M164.748,268.559c-0.257-0.081-0.5-0.029-0.734,0.066c-0.392,0.026-0.745,0.275-1.1,0.451
			c-0.757,0.406-1.51,0.821-2.231,1.29c-2.722,1.797-5.159,3.974-7.466,6.27c-1.823,1.867-2.808,2.718-4.07,4.616
			c-0.279,0.481-0.309,1.131,0.017,1.566c0.095,0.199,0.225,0.383,0.406,0.51c0.115,0.081,0.362,0.254,0.455,0.316
			c0.005,0.004,0.01,0.008,0.014,0.012c0.105,0.085,0.255,0.254,0.329,0.338c0.463,0.634,0.576,1.522,1.275,1.96
			c0.649,0.353,1.532,0.077,1.93-0.529c0.081-0.124,0.128-0.267,0.182-0.405c0.034-0.075,0.092-0.202,0.143-0.306
			c0.501-1.135,1.122-2.208,1.738-3.284c2.304-3.832,4.056-6.336,7.424-9.247c0.86-0.789,2.001-1.613,2.251-1.916
			C165.804,269.7,165.466,268.739,164.748,268.559z"/>
	</g>
</g>
<g>
	<g>
		<path style="fill:#FFFFFF;" d="M61.496,134.961c17.295,1.943,34.752,1.805,52.149,1.335c4.197-0.113,8.74-0.371,11.965-3.079
			c4.644-3.898,4.093-12.268-0.833-15.794c-4.926-3.526-12.663-1.607-15.715,3.648c0.384-6.477-4.848-12.783-11.248-13.557
			c-6.4-0.774-12.973,4.105-14.129,10.488c-0.323-4.376-6.481-6.342-10.111-3.91c-3.63,2.432-4.756,7.402-4.201,11.755
			c-1.578-4.18-8.12-4.742-10.969-1.309C55.555,127.972,56.409,134.389,61.496,134.961z"/>
		<path d="M80.886,136.832c-6.607-0.239-13.022-0.682-19.442-1.403c-2.163-0.243-3.802-1.488-4.615-3.504
			c-0.995-2.468-0.496-5.629,1.213-7.688c1.527-1.84,4.213-2.744,6.843-2.304c1.589,0.266,2.946,0.993,3.886,2.039
			c-0.052-3.745,1.102-7.967,4.542-10.272c2.053-1.376,5.058-1.508,7.477-0.329c1.346,0.656,2.343,1.632,2.893,2.795
			c1.974-5.712,8.182-9.85,14.189-9.12c6.103,0.738,11.217,6.393,11.652,12.52c1.642-2.057,4.065-3.532,6.849-4.13
			c3.147-0.677,6.311-0.092,8.679,1.604c2.506,1.794,4.08,4.91,4.212,8.337c0.128,3.318-1.094,6.307-3.351,8.202
			c-3.248,2.727-7.65,3.064-12.255,3.188C101.804,137.087,91.117,137.203,80.886,136.832z M61.549,134.493
			c16.307,1.833,32.615,1.858,52.084,1.332c4.432-0.12,8.659-0.437,11.675-2.968c2.033-1.706,3.132-4.419,3.015-7.444
			c-0.121-3.138-1.548-5.981-3.819-7.606c-2.152-1.541-5.044-2.07-7.933-1.449c-3.068,0.659-5.656,2.463-7.1,4.95
			c-0.11,0.188-0.334,0.277-0.543,0.214c-0.209-0.063-0.347-0.261-0.334-0.479c0.369-6.215-4.694-12.319-10.834-13.061
			c-6.137-0.741-12.499,3.979-13.609,10.104c-0.042,0.233-0.242,0.394-0.488,0.386c-0.237-0.013-0.428-0.199-0.445-0.436
			c-0.119-1.605-1.154-2.997-2.84-3.819c-2.127-1.037-4.755-0.93-6.539,0.265c-3.697,2.477-4.463,7.638-3.996,11.304
			c0.03,0.237-0.122,0.459-0.354,0.517c-0.235,0.058-0.471-0.067-0.555-0.291c-0.627-1.66-2.159-2.808-4.204-3.15
			c-2.304-0.386-4.645,0.39-5.962,1.976c-1.497,1.804-1.935,4.573-1.064,6.734C58.38,133.254,59.746,134.29,61.549,134.493z"/>
	</g>
	<g style="opacity:0.1294;">
		<path d="M126.794,131.181c-0.021-0.519-0.495-0.93-1.003-0.953c-0.389-0.028-0.69,0.229-1.015,0.399
			c-0.389,0.216-0.787,0.419-1.199,0.586c-1.481,0.516-2.974,1.079-4.546,1.224c-0.148,0.013-0.295,0.025-0.443,0.041
			c0.643-0.061,0.065-0.014-0.273-0.017c-7.162-0.195-14.313,0.324-21.475,0.327c-3.269,0.002-6.536,0.13-9.805,0.125
			c-5.431-0.072-10.862-0.117-16.293-0.181c-1.37-0.068-2.744-0.123-4.109-0.267c-2.257-0.284-4.501-0.713-6.773-0.854
			c-1.707-0.03-1.853,2.52-0.096,2.637c3.48,0.323,3.776,0.708,8.174,1.23c3.38,0.373,6.786,0.25,10.179,0.382
			c3.417,0.106,6.832,0.267,10.248,0.381c2.793,0.055,5.587-0.003,8.381,0.013c0.093,0,0.186-0.003,0.279-0.003
			c3.865,0.217,7.744,0.232,11.612,0.167c1.658-0.051,3.316,0.028,4.974,0.004c1.48-0.074,1.996-0.17,2.958-0.238
			c1.896-0.122,3.834-0.227,5.6-0.998c0.534-0.234,1.136-0.445,1.55-0.863c0.158-0.166,0.225-0.389,0.214-0.611
			c0.527-0.257,1.038-0.545,1.522-0.877c0.175-0.132,0.701-0.498,0.248-0.181c0.226-0.156,0.445-0.324,0.651-0.505
			C126.66,131.937,126.858,131.553,126.794,131.181z"/>
	</g>
</g>
</svg>
